<svg width="18" height="20" viewBox="0 0 18 20" fill="none" xmlns="http://www.w3.org/2000/svg">
<g id="Calendar">
<path id="Calendar_2" fill-rule="evenodd" clip-rule="evenodd" d="M13.4141 0.603004C13.3684 0.262469 13.0799 0 12.7307 0C12.3498 0 12.041 0.312359 12.041 0.697674V1.46924H5.96335V0.697674L5.95705 0.603004C5.91139 0.262469 5.62283 0 5.27367 0C4.89277 0 4.58398 0.312359 4.58398 0.697674V1.48653C1.74674 1.68175 0 3.51998 0 6.48601V14.9043C0 18.0874 1.95834 20.0002 5.09625 20.0002H12.9036C16.0453 20.0002 17.9999 18.1195 17.9999 14.9747V6.48601C18.009 3.5175 16.2662 1.67945 13.4204 1.48617V0.697674L13.4141 0.603004ZM12.041 2.86475V3.75887L12.0473 3.85354C12.093 4.19407 12.3815 4.45654 12.7307 4.45654C13.1116 4.45654 13.4204 4.14418 13.4204 3.75887V2.88498C15.4919 3.05559 16.6221 4.30147 16.6155 6.48403V6.8877H1.38477V6.48617C1.38477 4.30653 2.51952 3.05823 4.58398 2.88548V3.75887L4.59028 3.85354C4.63595 4.19407 4.92451 4.45654 5.27367 4.45654C5.65457 4.45654 5.96335 4.14418 5.96335 3.75887V2.86475H12.041ZM1.38477 8.28304V14.9044C1.38477 17.307 2.71367 18.605 5.09641 18.605H12.9038C15.2947 18.605 16.6155 17.3342 16.6155 14.9748L16.6155 8.28304H1.38477ZM13.7961 11.2182C13.7961 10.8329 13.4873 10.5205 13.1064 10.5205L13.0043 10.5269C12.6677 10.5731 12.4082 10.865 12.4082 11.2182C12.4082 11.6035 12.717 11.9159 13.1064 11.9159L13.2 11.9095C13.5366 11.8633 13.7961 11.5714 13.7961 11.2182ZM9.0107 10.5205C9.3916 10.5205 9.70038 10.8329 9.70038 11.2182C9.70038 11.5714 9.44092 11.8633 9.10429 11.9095L9.0107 11.9159C8.62128 11.9159 8.3125 11.6035 8.3125 11.2182C8.3125 10.865 8.57196 10.5731 8.9086 10.5269L9.0107 10.5205ZM5.59492 11.2182C5.59492 10.8329 5.28613 10.5205 4.90523 10.5205L4.80313 10.5269C4.46649 10.5731 4.20703 10.865 4.20703 11.2182C4.20703 11.6035 4.51581 11.9159 4.89671 11.9159L4.99882 11.9095C5.33545 11.8633 5.59492 11.5714 5.59492 11.2182ZM13.1064 14.1362C13.4873 14.1362 13.7961 14.4486 13.7961 14.8339C13.7961 15.1871 13.5366 15.479 13.2 15.5252L13.1064 15.5316C12.717 15.5316 12.4082 15.2192 12.4082 14.8339C12.4082 14.4807 12.6677 14.1888 13.0043 14.1426L13.1064 14.1362ZM9.70038 14.8339C9.70038 14.4486 9.3916 14.1362 9.0107 14.1362L8.9086 14.1426C8.57196 14.1888 8.3125 14.4807 8.3125 14.8339C8.3125 15.2192 8.62128 15.5316 9.0107 15.5316L9.10429 15.5252C9.44092 15.479 9.70038 15.1871 9.70038 14.8339ZM4.90523 14.1362C5.28613 14.1362 5.59492 14.4486 5.59492 14.8339C5.59492 15.1871 5.33545 15.479 4.99882 15.5252L4.89671 15.5316C4.51581 15.5316 4.20703 15.2192 4.20703 14.8339C4.20703 14.4807 4.46649 14.1888 4.80313 14.1426L4.90523 14.1362Z" fill="currentColor"/>
</g>
</svg>
