<svg width="20" height="20" viewBox="0 0 20 20" fill="none" xmlns="http://www.w3.org/2000/svg">
<g id="Category">
<path id="Category_2" fill-rule="evenodd" clip-rule="evenodd" d="M6.01348 0H2.97574C1.33089 0 0 1.34244 0 2.99552V6.05963C0 7.71203 1.33117 9.05515 2.97574 9.05515H6.01348C7.65805 9.05515 8.98922 7.71203 8.98922 6.05963V2.99552C8.98922 1.34244 7.65833 0 6.01348 0ZM2.97492 1.39551H6.01266C6.88417 1.39551 7.59305 2.11055 7.59305 2.99568V6.05979C7.59305 6.94434 6.88379 7.65996 6.01266 7.65996H2.97492C2.10379 7.65996 1.39453 6.94434 1.39453 6.05979V2.99568C1.39453 2.11055 2.10342 1.39551 2.97492 1.39551ZM17.0262 0H13.9875C12.3426 0 11.0117 1.34244 11.0117 2.99552V6.05963C11.0117 7.71203 12.3429 9.05515 13.9875 9.05515H17.0262C18.67 9.05515 20.0009 7.71184 20.0009 6.05963V2.99552C20.0009 1.34264 18.6702 0 17.0262 0ZM13.9866 1.39551H17.0253C17.896 1.39551 18.6048 2.11065 18.6048 2.99568V6.05979C18.6048 6.94423 17.8956 7.65996 17.0253 7.65996H13.9866C13.1155 7.65996 12.4062 6.94434 12.4062 6.05979V2.99568C12.4062 2.11055 13.1151 1.39551 13.9866 1.39551ZM2.97574 10.9449H6.01348C7.65852 10.9449 8.98922 12.2875 8.98922 13.9413V17.0045C8.98922 18.6576 7.65833 20 6.01348 20H2.97574C1.33089 20 0 18.6576 0 17.0045V13.9413C0 12.2875 1.3307 10.9449 2.97574 10.9449ZM6.01266 12.3404H2.97492C2.10331 12.3404 1.39453 13.0555 1.39453 13.9415V17.0046C1.39453 17.8898 2.10342 18.6048 2.97492 18.6048H6.01266C6.88417 18.6048 7.59305 17.8898 7.59305 17.0046V13.9415C7.59305 13.0555 6.88427 12.3404 6.01266 12.3404ZM17.0262 10.9448H13.9875C12.3424 10.9448 11.0117 12.2875 11.0117 13.9413V17.0045C11.0117 18.6575 12.3426 20 13.9875 20H17.0262C18.6702 20 20.0009 18.6573 20.0009 17.0045V13.9413C20.0009 12.2877 18.6704 10.9448 17.0262 10.9448ZM13.9866 12.3403H17.0253C17.8961 12.3403 18.6048 13.0556 18.6048 13.9415V17.0046C18.6048 17.8896 17.896 18.6048 17.0253 18.6048H13.9866C13.1151 18.6048 12.4062 17.8897 12.4062 17.0046V13.9415C12.4062 13.0555 13.115 12.3403 13.9866 12.3403Z" fill="currentColor"/>
</g>
</svg>
