<svg width="20" height="20" viewBox="0 0 20 20" fill="none" xmlns="http://www.w3.org/2000/svg">
<g id="Chat">
<path id="Fill 1" opacity="0.4" d="M10.02 0C4.21 0 0 4.74 0 10C0 11.68 0.49 13.41 1.35 14.99C1.51 15.25 1.53 15.58 1.42 15.89L0.75 18.13C0.6 18.67 1.06 19.07 1.57 18.91L3.59 18.31C4.14 18.13 4.57 18.36 5.081 18.67C6.541 19.53 8.36 19.97 10 19.97C14.96 19.97 20 16.14 20 9.97C20 4.65 15.7 0 10.02 0Z" fill="currentColor"/>
<path id="Combined Shape" fill-rule="evenodd" clip-rule="evenodd" d="M5.36984 11.2905C4.66984 11.2905 4.08984 10.7105 4.08984 10.0105C4.08984 9.30047 4.65984 8.73047 5.36984 8.73047C6.07984 8.73047 6.64985 9.30047 6.64985 10.0105C6.64985 10.7105 6.07984 11.2805 5.36984 11.2905ZM9.98117 11.2906C9.27117 11.2806 8.70117 10.7106 8.70117 10.0006C8.70117 9.3006 9.28117 8.7206 9.98117 8.7306C10.6912 8.7306 11.2612 9.3006 11.2612 10.0106C11.2612 10.7106 10.6912 11.2906 9.98117 11.2906ZM13.3105 10.0105C13.3105 10.7105 13.8805 11.2905 14.5905 11.2905C15.3005 11.2905 15.8705 10.7105 15.8705 10.0105C15.8705 9.30047 15.3005 8.73047 14.5905 8.73047C13.8805 8.73047 13.3105 9.30047 13.3105 10.0105Z" fill="currentColor"/>
</g>
</svg>
