<svg width="24" height="24" viewBox="0 0 24 24" fill="none" xmlns="http://www.w3.org/2000/svg">
<rect x="3" y="5" width="18" height="2" rx="1" fill="#8E68F3"/>
<rect x="3" y="11" width="9.9" height="2" rx="1" fill="#8E68F3"/>
<rect x="3" y="17" width="18" height="2" rx="1" fill="#8E68F3"/>
<path fill-rule="evenodd" clip-rule="evenodd" d="M17.2929 9.29289C16.9024 9.68342 16.9024 10.3166 17.2929 10.7071L18.5858 12L17.2929 13.2929C16.9024 13.6834 16.9024 14.3166 17.2929 14.7071C17.6834 15.0976 18.3166 15.0976 18.7071 14.7071L20.7071 12.7071C20.8946 12.5196 21 12.2652 21 12C21 11.7348 20.8946 11.4804 20.7071 11.2929L18.7071 9.29289C18.3166 8.90237 17.6834 8.90237 17.2929 9.29289Z" fill="#8E68F3"/>
</svg>
