<svg width="24" height="24" viewBox="0 0 24 24" fill="none" xmlns="http://www.w3.org/2000/svg">
<rect x="3" y="5" width="18" height="2" rx="1" fill="#8E68F3"/>
<rect x="3" y="11" width="9.9" height="2" rx="1" fill="#8E68F3"/>
<rect x="3" y="17" width="18" height="2" rx="1" fill="#8E68F3"/>
<path fill-rule="evenodd" clip-rule="evenodd" d="M20.7071 9.29289C21.0976 9.68342 21.0976 10.3166 20.7071 10.7071L19.4142 12L20.7071 13.2929C21.0976 13.6834 21.0976 14.3166 20.7071 14.7071C20.3166 15.0976 19.6834 15.0976 19.2929 14.7071L17.2929 12.7071C17.1054 12.5196 17 12.2652 17 12C17 11.7348 17.1054 11.4804 17.2929 11.2929L19.2929 9.29289C19.6834 8.90237 20.3166 8.90237 20.7071 9.29289Z" fill="#8E68F3"/>
</svg>
