<svg width="21" height="21" viewBox="0 0 21 21" fill="none" xmlns="http://www.w3.org/2000/svg">
<path fill-rule="evenodd" clip-rule="evenodd" d="M9.33048 0.0214844C11.7097 0.0214844 13.6516 1.89542 13.7607 4.24772L13.7655 4.45648V5.38948C13.7655 5.8037 13.4297 6.13948 13.0155 6.13948C12.6358 6.13948 12.322 5.85733 12.2723 5.49125L12.2655 5.38948V4.45648C12.2655 2.89358 11.0435 1.61575 9.50292 1.52647L9.33048 1.52148H4.45548C2.89343 1.52148 1.61574 2.74362 1.52647 4.28406L1.52148 4.45648V15.5865C1.52148 17.1493 2.74339 18.4272 4.28314 18.5165L4.45548 18.5215H9.34048C10.8978 18.5215 12.1715 17.3039 12.2605 15.7693L12.2655 15.5975V14.6545C12.2655 14.2403 12.6013 13.9045 13.0155 13.9045C13.3952 13.9045 13.709 14.1866 13.7586 14.5527L13.7655 14.6545V15.5975C13.7655 17.9687 11.8987 19.9046 9.55484 20.0164L9.34048 20.0215H4.45548C2.07704 20.0215 0.135325 18.1474 0.0263116 15.7952L0.0214844 15.5865V4.45648C0.0214844 2.07743 1.89524 0.135347 4.24679 0.0263125L4.45548 0.0214844H9.33048ZM20.4087 10.4713L20.4111 10.4686C20.63 10.1745 20.6057 9.75641 20.338 9.48994L17.41 6.57494L17.3257 6.50251C17.0316 6.28531 16.615 6.31044 16.3493 6.5773L16.2769 6.66158C16.0597 6.95567 16.0849 7.37228 16.3517 7.63795L17.9933 9.27148H7.76758L7.66581 9.27833C7.29973 9.32799 7.01758 9.64179 7.01758 10.0215C7.01758 10.4357 7.35336 10.7715 7.76758 10.7715H17.9918L16.3516 12.406L16.2788 12.49C16.0604 12.7832 16.0837 13.1999 16.3494 13.4667C16.6417 13.7602 17.1166 13.7612 17.4101 13.4689L20.3381 10.5529L20.3397 10.551C20.3645 10.5261 20.3876 10.4995 20.4087 10.4713Z" fill="currentColor"/>
</svg>
