<svg width="20" height="20" viewBox="0 0 20 20" fill="none" xmlns="http://www.w3.org/2000/svg">
<g id="Setting">
<path id="Setting_2" fill-rule="evenodd" clip-rule="evenodd" d="M10.6161 2.17328e-07H9.38106C8.6855 2.17328e-07 8.01861 0.271551 7.52796 0.754574C7.09307 1.1827 6.82704 1.74716 6.77575 2.34781L6.76724 2.54181C6.75775 3.17352 6.24742 3.66634 5.62101 3.66628C5.47895 3.6648 5.33141 3.63238 5.19559 3.5713L5.06235 3.50171C3.83155 2.81017 2.23128 3.23376 1.50918 4.46166L0.859895 5.50695C0.169493 6.68048 0.510007 8.15476 1.62449 8.91408L1.77948 9.01151C2.16149 9.22838 2.37987 9.59896 2.37987 10C2.37987 10.3688 2.19491 10.7137 1.88645 10.9228L1.78115 10.9875C0.626514 11.6412 0.171573 13.0841 0.751966 14.2844L0.83679 14.4442L1.47412 15.5224C1.80539 16.1083 2.37306 16.5497 3.04445 16.7366C3.63953 16.9023 4.2746 16.8565 4.83762 16.6084L5.01565 16.5213C5.31529 16.3516 5.62484 16.3109 5.91538 16.3871C6.20591 16.4633 6.45336 16.65 6.6027 16.9057C6.68504 17.0418 6.73337 17.1822 6.75063 17.3277L6.75912 17.4753C6.75765 18.8493 7.93219 20 9.38106 20H10.6164C11.9845 20 13.12 18.9703 13.231 17.6414L13.2391 17.4698C13.2383 17.1379 13.3582 16.8524 13.5727 16.6422C13.7872 16.432 14.0786 16.3146 14.382 16.316C14.5214 16.3199 14.6746 16.3541 14.8166 16.4163L14.9527 16.485C16.1011 17.1344 17.6058 16.8008 18.3808 15.7089L18.4803 15.557L19.1399 14.4804C19.495 13.8833 19.5912 13.1817 19.4119 12.523C19.253 11.9391 18.8887 11.4297 18.3843 11.0841L18.2174 10.9793C17.9272 10.8149 17.736 10.5708 17.658 10.2844C17.58 9.99795 17.6218 9.69291 17.7742 9.43678C17.8585 9.29258 17.9706 9.17256 18.1051 9.08068L18.3624 8.92228C19.4043 8.22927 19.7945 6.86519 19.2461 5.71842L19.1892 5.60674C19.1769 5.57762 19.1627 5.54922 19.1465 5.52174L18.5333 4.47928C17.8511 3.31918 16.3759 2.86897 15.146 3.4355L14.9821 3.51839C14.6882 3.68688 14.3779 3.72947 14.0857 3.65514C13.7935 3.58081 13.5435 3.39567 13.3908 3.14055C13.3124 3.01116 13.2641 2.87079 13.2468 2.72535L13.2383 2.57766C13.2599 1.94968 12.9925 1.27681 12.4983 0.778711C12.0041 0.280615 11.3251 -0.000285223 10.6161 2.17328e-07ZM9.38198 1.44775H10.6173C10.9273 1.44763 11.2238 1.57031 11.4396 1.78784C11.6555 2.00538 11.7723 2.29925 11.7634 2.6025L11.7765 2.85456C11.8212 3.23986 11.9366 3.57505 12.119 3.87618C12.4682 4.45966 13.0432 4.88548 13.7152 5.05643C14.3872 5.22738 15.101 5.12942 15.6993 4.78416L15.8024 4.73267L15.9134 4.68911C16.4018 4.52854 16.9773 4.73177 17.2539 5.2021L17.8387 6.19727L17.8514 6.22531L17.9221 6.35885C18.1587 6.85505 17.961 7.48272 17.449 7.77615L17.2882 7.87534C16.9473 8.10734 16.6858 8.38717 16.4956 8.71263C16.148 9.29708 16.0518 9.99867 16.2311 10.6574C16.3941 11.2563 16.7725 11.7748 17.2932 12.1195L17.5654 12.2882C17.7575 12.4207 17.9159 12.6422 17.985 12.896C18.063 13.1824 18.0212 13.4875 17.8689 13.7436L17.2245 14.7957L17.152 14.9067C16.8539 15.3258 16.2656 15.4815 15.7697 15.2682L15.4537 15.1101C15.1013 14.9547 14.7565 14.8778 14.4062 14.8686C13.6923 14.865 13.0222 15.1351 12.5288 15.6185C12.0354 16.1019 11.7597 16.7585 11.7631 17.4421L11.7574 17.5512C11.7108 18.1023 11.2146 18.5523 10.6173 18.5523H9.38198C8.7914 18.5523 8.30518 18.1145 8.24297 17.5521L8.22282 17.1985C8.17813 16.8132 8.06271 16.478 7.88029 16.1769C7.5412 15.5959 6.96953 15.1646 6.29829 14.9886C5.62706 14.8126 4.91188 14.9066 4.31172 15.2497L4.203 15.3018C3.98661 15.3964 3.70923 15.4164 3.44935 15.3441C3.15613 15.2624 2.90821 15.0696 2.76044 14.8084L2.1312 13.7449L2.07491 13.6384C1.83655 13.144 2.03446 12.5163 2.54731 12.2256L2.70312 12.1296C3.43505 11.6341 3.85847 10.8446 3.85847 10C3.85847 9.14296 3.42289 8.34667 2.70487 7.87102L2.44416 7.70926C1.98349 7.39467 1.83469 6.75045 2.13221 6.24457L2.7815 5.19926C3.10583 4.64817 3.80472 4.46317 4.35282 4.77087L4.54519 4.87027C4.90448 5.03294 5.2568 5.11036 5.61419 5.114C7.00061 5.11417 8.13431 4.07089 8.23777 2.74152L8.2512 2.43663C8.2715 2.20742 8.38717 1.96198 8.57626 1.77584C8.78959 1.56582 9.07955 1.44775 9.38198 1.44775ZM10.0037 6.73193C8.16144 6.73193 6.66797 8.19515 6.66797 10.0001C6.66797 11.8051 8.16144 13.2683 10.0037 13.2683C11.846 13.2683 13.3395 11.8051 13.3395 10.0001C13.3395 8.19515 11.846 6.73193 10.0037 6.73193ZM10.0046 8.17969C11.0308 8.17969 11.8627 8.99473 11.8627 10.0001C11.8627 11.0055 11.0308 11.8206 10.0046 11.8206C8.97838 11.8206 8.14648 11.0055 8.14648 10.0001C8.14648 8.99473 8.97838 8.17969 10.0046 8.17969Z" fill="currentColor"/>
</g>
</svg>
