<svg width="23" height="18" viewBox="0 0 23 18" fill="none" xmlns="http://www.w3.org/2000/svg">
<g id="3 User">
<path id="3 User_2" fill-rule="evenodd" clip-rule="evenodd" d="M11.9383 0.4375C9.38278 0.4375 7.33008 2.4902 7.33008 5.04575C7.33008 7.60205 9.38261 9.65492 11.9383 9.65492C14.494 9.65492 16.5466 7.60205 16.5466 5.04575C16.5466 2.4902 14.4939 0.4375 11.9383 0.4375ZM11.9383 1.9375C13.6654 1.9375 15.0466 3.31863 15.0466 5.04575C15.0466 6.77367 13.6656 8.15492 11.9383 8.15492C10.2111 8.15492 8.83008 6.77367 8.83008 5.04575C8.83008 3.31863 10.2112 1.9375 11.9383 1.9375ZM6.29084 1.37939C6.70505 1.37939 7.04084 1.71518 7.04084 2.12939C7.04084 2.54361 6.70505 2.87939 6.29084 2.87939C5.10247 2.87939 4.13867 3.84277 4.13867 5.03064C4.13867 6.21852 5.10247 7.18189 6.29084 7.18189C6.70505 7.18189 7.04084 7.51768 7.04084 7.9319C7.04084 8.34611 6.70505 8.6819 6.29084 8.6819C4.27419 8.6819 2.63867 7.04709 2.63867 5.03064C2.63867 3.0142 4.27419 1.37939 6.29084 1.37939ZM21.2479 5.03064C21.2479 3.0142 19.6124 1.37939 17.5957 1.37939C17.1815 1.37939 16.8457 1.71518 16.8457 2.12939C16.8457 2.54361 17.1815 2.87939 17.5957 2.87939C18.7841 2.87939 19.7479 3.84277 19.7479 5.03064C19.7479 6.21852 18.7841 7.18189 17.5957 7.18189C17.1815 7.18189 16.8457 7.51768 16.8457 7.9319C16.8457 8.34611 17.1815 8.6819 17.5957 8.6819C19.6124 8.6819 21.2479 7.04709 21.2479 5.03064ZM20.4965 10.5552C20.0163 10.4468 19.5031 10.3728 18.9813 10.3368C18.5681 10.3083 18.21 10.6202 18.1815 11.0334C18.153 11.4466 18.4649 11.8047 18.8781 11.8332C19.3246 11.864 19.7622 11.9272 20.1877 12.0229C20.8494 12.1528 21.2808 12.368 21.3878 12.5924C21.4684 12.7617 21.4684 12.9608 21.3871 13.1322C21.2814 13.3543 20.8536 13.5685 20.2013 13.7026C19.7956 13.786 19.5343 14.1826 19.6178 14.5883C19.7012 14.994 20.0977 15.2553 20.5034 15.1719C21.5816 14.9502 22.3715 14.5548 22.742 13.7758C23.0167 13.1966 23.0167 12.5249 22.742 11.9473C22.3689 11.1653 21.5655 10.7645 20.4965 10.5552ZM5.70394 11.0334C5.67545 10.6202 5.31735 10.3083 4.90412 10.3368C4.38233 10.3728 3.86916 10.4468 3.36839 10.5595L3.16194 10.6032C2.21432 10.8197 1.49137 11.2176 1.14435 11.9472C0.8685 12.5243 0.8685 13.1972 1.14464 13.7764C1.51357 14.5546 2.30334 14.9501 3.38199 15.1719C3.78771 15.2553 4.18425 14.994 4.26768 14.5883C4.35111 14.1826 4.08984 13.786 3.68412 13.7026C3.03203 13.5685 2.60466 13.3545 2.49933 13.1324C2.41727 12.9602 2.41727 12.7623 2.49832 12.5927C2.60531 12.3678 3.03627 12.1527 3.67715 12.0273L4.01038 11.9591C4.34256 11.8976 4.67243 11.8563 5.00732 11.8332C5.42055 11.8047 5.73244 11.4466 5.70394 11.0334ZM5.16797 14.1845C5.16797 11.7985 7.63591 10.9595 11.9386 10.9595L12.2435 10.9609C16.3664 10.9996 18.7093 11.8406 18.7093 14.1671C18.7093 16.4388 16.4697 17.3086 12.5406 17.3863L11.9386 17.3921C7.62604 17.3921 5.16797 16.5677 5.16797 14.1845ZM17.2093 14.1671C17.2093 13.0565 15.4288 12.4595 11.9386 12.4595C8.45193 12.4595 6.66797 13.066 6.66797 14.1845C6.66797 15.2951 8.44795 15.8921 11.9386 15.8921C15.4243 15.8921 17.2093 15.285 17.2093 14.1671Z" fill="currentColor"/>
</g>
</svg>
