<svg width="20" height="20" viewBox="0 0 20 20" fill="none" xmlns="http://www.w3.org/2000/svg">
<g id="material-symbols:prescriptions-outline-sharp" clip-path="url(#clip0_3917_77265)">
<g id="Vector">
<path d="M14.125 17.209L15.0833 16.2507L13.75 14.9173L12.7917 15.8757C12.5972 16.0701 12.5 16.2923 12.5 16.5423C12.5 16.7923 12.5972 17.0145 12.7917 17.209C12.9861 17.4034 13.2083 17.5007 13.4583 17.5007C13.7083 17.5007 13.9306 17.4034 14.125 17.209ZM16.25 15.084L17.2083 14.1257C17.4028 13.9312 17.5 13.709 17.5 13.459C17.5 13.209 17.4028 12.9868 17.2083 12.7923C17.0139 12.5979 16.7917 12.5007 16.5417 12.5007C16.2917 12.5007 16.0694 12.5979 15.875 12.7923L14.9167 13.7507L16.25 15.084ZM15.3125 18.3965C14.7986 18.9104 14.1806 19.1673 13.4583 19.1673C12.7361 19.1673 12.1181 18.9104 11.6042 18.3965C11.0903 17.8826 10.8333 17.2645 10.8333 16.5423C10.8333 15.8201 11.0903 15.202 11.6042 14.6882L14.6875 11.6048C15.2014 11.0909 15.8194 10.834 16.5417 10.834C17.2639 10.834 17.8819 11.0909 18.3958 11.6048C18.9097 12.1187 19.1667 12.7368 19.1667 13.459C19.1667 14.1812 18.9097 14.7993 18.3958 15.3132L15.3125 18.3965ZM9.27083 17.5007H2.5V2.50065H7.66667C7.84722 2.00065 8.14944 1.59787 8.57333 1.29232C8.99667 0.986762 9.47222 0.833984 10 0.833984C10.5278 0.833984 11.0036 0.986762 11.4275 1.29232C11.8508 1.59787 12.1528 2.00065 12.3333 2.50065H17.5V9.27148C17.2222 9.20204 16.9444 9.16732 16.6667 9.16732C16.3889 9.16732 16.1111 9.18815 15.8333 9.22982V4.16732H4.16667V15.834H9.22917C9.1875 16.1118 9.16667 16.3895 9.16667 16.6673C9.16667 16.9451 9.20139 17.2229 9.27083 17.5007ZM10 3.54232C10.1806 3.54232 10.33 3.48315 10.4483 3.36482C10.5661 3.24704 10.625 3.09787 10.625 2.91732C10.625 2.73676 10.5661 2.58732 10.4483 2.46898C10.33 2.35121 10.1806 2.29232 10 2.29232C9.81944 2.29232 9.67028 2.35121 9.5525 2.46898C9.43417 2.58732 9.375 2.73676 9.375 2.91732C9.375 3.09787 9.43417 3.24704 9.5525 3.36482C9.67028 3.48315 9.81944 3.54232 10 3.54232ZM5.83333 7.50065V5.83398H14.1667V7.50065H5.83333ZM5.83333 10.834V9.16732H14.1667V9.87565C14.0556 9.9451 13.9481 10.0248 13.8442 10.1148C13.7397 10.2054 13.6319 10.3062 13.5208 10.4173L13.1042 10.834H5.83333ZM5.83333 14.1673V12.5007H11.4375L10.4167 13.5215C10.3056 13.6326 10.205 13.7404 10.115 13.8448C10.0244 13.9487 9.94444 14.0562 9.875 14.1673H5.83333Z" fill="#9A9A9A"/>
<path d="M4.16667 15.834V20.5423M4.16667 15.834V4.16732H15.8333V9.22982C16.1111 9.18815 16.3889 9.16732 16.6667 9.16732C16.9444 9.16732 17.2222 9.20204 17.5 9.27148V2.50065H12.3333C12.1528 2.00065 11.8508 1.59787 11.4275 1.29232C11.0036 0.986762 10.5278 0.833984 10 0.833984C9.47222 0.833984 8.99667 0.986762 8.57333 1.29232C8.14944 1.59787 7.84722 2.00065 7.66667 2.50065H2.5V17.5007H9.27083C9.20139 17.2229 9.16667 16.9451 9.16667 16.6673C9.16667 16.3895 9.1875 16.1118 9.22917 15.834H4.16667ZM14.125 17.209L15.0833 16.2507L13.75 14.9173L12.7917 15.8757C12.5972 16.0701 12.5 16.2923 12.5 16.5423C12.5 16.7923 12.5972 17.0145 12.7917 17.209C12.9861 17.4034 13.2083 17.5007 13.4583 17.5007C13.7083 17.5007 13.9306 17.4034 14.125 17.209ZM16.25 15.084L17.2083 14.1257C17.4028 13.9312 17.5 13.709 17.5 13.459C17.5 13.209 17.4028 12.9868 17.2083 12.7923C17.0139 12.5979 16.7917 12.5007 16.5417 12.5007C16.2917 12.5007 16.0694 12.5979 15.875 12.7923L14.9167 13.7507L16.25 15.084ZM15.3125 18.3965C14.7986 18.9104 14.1806 19.1673 13.4583 19.1673C12.7361 19.1673 12.1181 18.9104 11.6042 18.3965C11.0903 17.8826 10.8333 17.2645 10.8333 16.5423C10.8333 15.8201 11.0903 15.202 11.6042 14.6882L14.6875 11.6048C15.2014 11.0909 15.8194 10.834 16.5417 10.834C17.2639 10.834 17.8819 11.0909 18.3958 11.6048C18.9097 12.1187 19.1667 12.7368 19.1667 13.459C19.1667 14.1812 18.9097 14.7993 18.3958 15.3132L15.3125 18.3965ZM10 3.54232C10.1806 3.54232 10.33 3.48315 10.4483 3.36482C10.5661 3.24704 10.625 3.09787 10.625 2.91732C10.625 2.73676 10.5661 2.58732 10.4483 2.46898C10.33 2.35121 10.1806 2.29232 10 2.29232C9.81944 2.29232 9.67028 2.35121 9.5525 2.46898C9.43417 2.58732 9.375 2.73676 9.375 2.91732C9.375 3.09787 9.43417 3.24704 9.5525 3.36482C9.67028 3.48315 9.81944 3.54232 10 3.54232ZM5.83333 7.50065V5.83398H14.1667V7.50065H5.83333ZM5.83333 10.834V9.16732H14.1667V9.87565C14.0556 9.9451 13.9481 10.0248 13.8442 10.1148C13.7397 10.2054 13.6319 10.3062 13.5208 10.4173L13.1042 10.834H5.83333ZM5.83333 14.1673V12.5007H11.4375L10.4167 13.5215C10.3056 13.6326 10.205 13.7404 10.115 13.8448C10.0244 13.9487 9.94444 14.0562 9.875 14.1673H5.83333Z" stroke="white" stroke-width="0.1"/>
</g>
</g>
<defs>
<clipPath id="clip0_3917_77265">
<rect width="20" height="20" fill="white"/>
</clipPath>
</defs>
</svg>
