<svg width="20" height="20" viewBox="0 0 20 20" fill="none" xmlns="http://www.w3.org/2000/svg">
<g id="fontisto:test-tube">
<path id="Vector" d="M8.59542 1H1V2.46856H1.57847V15.9526C1.57847 16.7608 1.91768 17.5359 2.52148 18.1074C3.12528 18.6789 3.94421 19 4.79811 19C5.65201 19 6.47093 18.6789 7.07473 18.1074C7.67853 17.5359 8.01774 16.7608 8.01774 15.9526V2.46856H8.59621L8.59542 1ZM7.07396 15.9541C7.05873 16.515 6.81273 17.0481 6.38837 17.4398C5.964 17.8316 5.39481 18.051 4.80203 18.0514C4.20925 18.0518 3.63973 17.8331 3.21479 17.4419C2.78984 17.0507 2.54306 16.518 2.52701 15.9571V15.1741H4.09047V14.3116H2.52701V12.7927H4.09047V11.9092H2.52701V10.3904H4.09047V9.50685H2.52701V7.98804H4.09047V7.1255H2.52701V5.60669H4.09047V4.74416H2.52701V2.45656H7.07396V15.9541ZM11.4038 1V2.46856H11.9823V15.9526C11.9823 16.7608 12.3215 17.5359 12.9253 18.1074C13.5291 18.6789 14.348 19 15.2019 19C16.0558 19 16.8747 18.6789 17.4785 18.1074C18.0823 17.5359 18.4215 16.7608 18.4215 15.9526V2.46856H19V1H11.4038ZM17.4762 8.86783H12.93V7.99479H14.4935V7.13226H12.93V5.61344H14.4935V4.75091H12.93V2.46331H17.4762V8.86783Z" fill="#9A9A9A"/>
</g>
</svg>
