<svg width="20" height="20" viewBox="0 0 20 20" fill="none" xmlns="http://www.w3.org/2000/svg">
<g id="healthicons:doctor-female-outline" clip-path="url(#clip0_3917_77259)">
<g id="Group">
<path id="Vector" fill-rule="evenodd" clip-rule="evenodd" d="M14.2432 2.72335C14.2586 2.74183 14.273 2.76186 14.2858 2.78189L14.2863 2.78292L14.2879 2.78548L14.2925 2.79319L14.3089 2.8204C14.403 2.9772 14.494 3.13591 14.5816 3.29643C14.7562 3.61583 14.9878 4.0667 15.2199 4.59972C15.6795 5.65242 16.1622 7.07331 16.1622 8.42693C16.1622 9.95874 15.1275 10.8081 14.2175 11.2466C13.7638 11.462 13.2849 11.6199 12.792 11.7165C12.0331 12.4209 11.0355 12.8115 10 12.8098C9.38254 12.8104 8.77286 12.6717 8.21651 12.4037C7.66015 12.1358 7.17149 11.7457 6.78699 11.2625L6.76337 11.2605C6.65173 11.2503 6.54054 11.2356 6.4301 11.2163C6.08075 11.1572 5.74065 11.0526 5.41848 10.9051C5.04362 10.7305 4.64513 10.4625 4.34011 10.0512C4.03046 9.63368 3.83789 9.09655 3.83789 8.42642C3.83789 7.15958 4.45513 5.72021 5.02205 4.65107C5.36319 4.0101 5.74144 3.38958 6.15486 2.79267L6.17129 2.76956L6.17745 2.75981C6.24221 2.66167 6.31304 2.56769 6.38953 2.4784C6.58984 2.2472 6.81745 2.04115 7.06737 1.86475C7.69077 1.42159 8.65104 1 10.0283 1C11.4019 1 12.448 1.41954 13.1525 1.8437C13.5042 2.05578 13.7708 2.26838 13.952 2.43116C14.051 2.52035 14.1453 2.61462 14.2345 2.71359L14.2396 2.71975L14.2422 2.72232L14.2432 2.72335ZM7.04067 3.31697C7.03302 3.32999 7.02479 3.34267 7.01602 3.35497L7.01499 3.356L7.01088 3.36113L6.99394 3.38578C6.88646 3.53975 6.78186 3.69572 6.68018 3.85359C6.47478 4.17197 6.20159 4.61872 5.92943 5.13223C5.37175 6.18391 4.86492 7.43072 4.86492 8.42693C4.86492 8.88858 4.99329 9.2085 5.16481 9.44009C5.34145 9.67733 5.58537 9.8509 5.8524 9.97517C5.97924 10.0342 6.10762 10.081 6.22983 10.1174C6.13226 9.67669 6.05872 9.23099 6.00954 8.78228C5.95151 8.23077 5.93456 7.61917 6.03829 7.07845C6.14048 6.5485 6.38132 5.97902 6.93283 5.68272C7.66664 5.28886 8.90831 4.76199 10.0031 4.39894C10.549 4.21767 11.0815 4.06926 11.5072 4.00148C11.7162 3.96862 11.9308 3.95013 12.1198 3.96913C12.2677 3.98453 12.5743 4.04051 12.7437 4.31832C14.12 6.3051 14.1405 8.1255 13.7918 9.45498C13.6912 9.83909 13.5607 10.1801 13.4262 10.4697C13.5432 10.4252 13.6584 10.3759 13.7713 10.3218C14.5159 9.96233 15.1352 9.39028 15.1352 8.42693C15.1352 7.28591 14.7192 6.02061 14.2786 5.01002C14.0437 4.47323 13.7787 3.95015 13.4847 3.44329L13.4365 3.36164L13.4241 3.34881L13.4185 3.34264C13.3693 3.29162 13.3183 3.24246 13.2655 3.19527C13.0664 3.01829 12.8512 2.86045 12.6225 2.72386C12.049 2.37775 11.1837 2.02702 10.0283 2.02702C8.87596 2.02702 8.12213 2.3757 7.66304 2.70229C7.4812 2.83026 7.3155 2.97975 7.16956 3.14751C7.12428 3.20013 7.0821 3.25534 7.04324 3.31286L7.04067 3.31697ZM7.29999 10.1888C7.17715 9.69081 7.08726 9.18528 7.03091 8.67547C6.97699 8.16555 6.97032 7.66899 7.04632 7.27204C7.12488 6.86534 7.26713 6.66866 7.4181 6.58753C8.08926 6.22704 9.27496 5.72226 10.3261 5.37359C10.853 5.19899 11.3234 5.07061 11.6674 5.01618C11.7973 4.99564 11.8928 4.98794 11.9576 4.98845C13.0863 6.66661 13.0744 8.13988 12.7977 9.19463C12.678 9.64838 12.496 10.0834 12.2569 10.4871C12.169 10.6357 12.0721 10.7787 11.9668 10.9154L11.9632 10.92L11.9524 10.9334L11.9504 10.9354L11.9498 10.936C11.8908 11.005 11.8511 11.0884 11.8348 11.1778C11.4818 11.4398 11.0767 11.6232 10.6469 11.7156C10.2171 11.8081 9.77245 11.8074 9.3429 11.7137C8.91335 11.6201 8.50884 11.4355 8.15656 11.1725C7.80427 10.9094 7.51187 10.574 7.29999 10.1888ZM12.0438 4.99513C12.0393 4.99457 12.0348 4.99354 12.0305 4.99205C12.035 4.9924 12.0395 4.99343 12.0438 4.99513Z" fill="white"/>
<path id="Vector_2" fill-rule="evenodd" clip-rule="evenodd" d="M6.87482 13.2514C6.76596 13.0347 6.63193 12.7672 6.40547 12.819C3.63045 13.4507 0.756836 15.2746 0.756836 17.2132V20.0015H19.2433V17.2132C19.2433 15.686 17.4604 14.2307 15.3473 13.3721L15.3401 13.3582L15.3375 13.3531L15.3206 13.3613C14.7593 13.1354 14.1749 12.9505 13.5946 12.819C13.3364 12.76 13.0693 13.1153 12.9528 13.3377H6.91899C6.90399 13.3091 6.88927 13.2803 6.87482 13.2514ZM13.8016 13.9298C14.026 13.9914 14.2494 14.0617 14.4697 14.1388C14.4758 14.3144 14.4625 14.5213 14.4337 14.7329C14.4045 14.9519 14.3578 15.1683 14.2941 15.3799H13.5946C13.4993 15.38 13.4059 15.4066 13.3248 15.4567C13.2437 15.5069 13.1782 15.5786 13.1356 15.6639L12.6221 16.6909C12.5863 16.7622 12.5677 16.8408 12.5676 16.9205V17.9475C12.5676 18.0837 12.6217 18.2143 12.718 18.3106C12.8143 18.4069 12.9449 18.461 13.0811 18.461H14.1082V17.434H13.5946V17.0416L13.912 16.4069H15.3313L15.6487 17.0416V17.434H15.1352V18.461H16.1622C16.2984 18.461 16.429 18.4069 16.5253 18.3106C16.6216 18.2143 16.6757 18.0837 16.6757 17.9475V16.9205C16.6757 16.8408 16.657 16.7622 16.6213 16.6909L16.1078 15.6639C16.0652 15.5786 15.9996 15.5069 15.9186 15.4567C15.8375 15.4066 15.744 15.38 15.6487 15.3799H15.358C15.4215 15.1083 15.464 14.8323 15.4854 14.5542C15.9861 14.7904 16.4513 15.0615 16.8544 15.3553C17.8414 16.0762 18.2163 16.75 18.2163 17.2132V18.9745H1.78386V17.2132C1.78386 16.7495 2.15873 16.0757 3.1457 15.3558C3.64175 14.9938 4.23383 14.6661 4.86853 14.395C4.88616 14.8042 4.95183 15.2099 5.06418 15.6038L5.06829 15.6182C4.76129 15.8124 4.5328 16.1089 4.42318 16.4552C4.31356 16.8015 4.32985 17.1755 4.46918 17.511C4.60852 17.8464 4.86193 18.1219 5.18465 18.2887C5.50738 18.4554 5.87866 18.5028 6.23292 18.4224C6.58718 18.342 6.90162 18.139 7.12072 17.8492C7.33981 17.5594 7.44946 17.2016 7.43029 16.8388C7.41113 16.476 7.26438 16.1317 7.01597 15.8666C6.76756 15.6016 6.43348 15.4328 6.07272 15.3902C6.00709 15.1753 5.959 14.9555 5.92893 14.7329C5.90035 14.5338 5.8885 14.3326 5.8935 14.1316C5.89499 14.0932 5.89756 14.0548 5.9012 14.0165C5.96283 13.9975 6.02445 13.9791 6.08607 13.9616L6.29918 14.3652H13.5726L13.8016 13.9298ZM5.89196 17.4417C6.16823 17.4417 6.40547 17.2157 6.40547 16.9205C6.40547 16.6257 6.16823 16.3992 5.89196 16.3992C5.61569 16.3992 5.37845 16.6252 5.37845 16.9205C5.37845 17.2152 5.61569 17.4417 5.89196 17.4417Z" fill="white"/>
</g>
</g>
<defs>
<clipPath id="clip0_3917_77259">
<rect width="20" height="20" fill="white"/>
</clipPath>
</defs>
</svg>
