<svg width="24" height="24" viewBox="0 0 24 24" fill="none" xmlns="http://www.w3.org/2000/svg">
<g id="mdi:apple-keyboard-caps">
<path id="Vector" d="M14 13.6667C14.2209 13.6667 14.4 13.4876 14.4 13.2667V9.06667C14.4 8.84575 14.5791 8.66667 14.8 8.66667H15.1975C15.55 8.66667 15.7301 8.2439 15.4861 7.98965L12.2886 4.65891C12.1311 4.49493 11.8689 4.49493 11.7114 4.65891L8.51393 7.98965C8.26986 8.2439 8.45005 8.66667 8.80249 8.66667H9.2C9.42091 8.66667 9.6 8.84575 9.6 9.06667V13.2667C9.6 13.4876 9.77909 13.6667 10 13.6667H14ZM11.7114 2.30058C11.8689 2.1366 12.1311 2.13659 12.2886 2.30058L19.3501 9.65632C19.5941 9.91057 19.414 10.3333 19.0615 10.3333H16.4C16.1791 10.3333 16 10.5124 16 10.7333V14.9333C16 15.1542 15.8209 15.3333 15.6 15.3333H8.4C8.17909 15.3333 8 15.1542 8 14.9333V10.7333C8 10.5124 7.82091 10.3333 7.6 10.3333H4.93849C4.58605 10.3333 4.40586 9.91057 4.64993 9.65632L11.7114 2.30058ZM8 17.4C8 17.1791 8.17909 17 8.4 17H15.6C15.8209 17 16 17.1791 16 17.4V21.6C16 21.8209 15.8209 22 15.6 22H8.4C8.17909 22 8 21.8209 8 21.6V17.4ZM14.4 19.0667C14.4 18.8458 14.2209 18.6667 14 18.6667H10C9.77909 18.6667 9.6 18.8458 9.6 19.0667V19.9333C9.6 20.1542 9.77909 20.3333 10 20.3333H14C14.2209 20.3333 14.4 20.1542 14.4 19.9333V19.0667Z" fill="#87BEFF"/>
</g>
</svg>
