<svg viewBox="0 0 32 32" xmlns="http://www.w3.org/2000/svg">
<g id="ph:arrows-down-up-thin">
<path id="Vector" d="M21.65 11.7C21.6954 11.6531 21.7498 11.6159 21.81 11.5904C21.8701 11.565 21.9347 11.5518 22 11.5518C22.0653 11.5518 22.1299 11.565 22.19 11.5904C22.2502 11.6159 22.3046 11.6531 22.35 11.7L26.35 15.7C26.3969 15.7454 26.4341 15.7998 26.4596 15.86C26.485 15.9201 26.4982 15.9847 26.4982 16.05C26.4982 16.1153 26.485 16.1799 26.4596 16.24C26.4341 16.3002 26.3969 16.3546 26.35 16.4L22.35 20.4C22.2537 20.4722 22.1346 20.5073 22.0146 20.4987C21.8945 20.4902 21.7816 20.4387 21.6964 20.3536C21.6113 20.2684 21.5598 20.1555 21.5513 20.0354C21.5427 19.9154 21.5778 19.7963 21.65 19.7L24.7875 16.55H6C5.86739 16.55 5.74021 16.4973 5.64645 16.4036C5.55268 16.3098 5.5 16.1826 5.5 16.05C5.5 15.9174 5.55268 15.7902 5.64645 15.6964C5.74021 15.6027 5.86739 15.55 6 15.55H24.7875L21.65 12.4C21.6031 12.3546 21.5659 12.3002 21.5404 12.24C21.515 12.1799 21.5018 12.1153 21.5018 12.05C21.5018 11.9847 21.515 11.9201 21.5404 11.86C21.5659 11.7998 21.6031 11.7454 21.65 11.7Z" fill="white"/>
</g>
</svg>
