<svg width="10" height="20" viewBox="0 0 10 20" fill="none" xmlns="http://www.w3.org/2000/svg">
<path id="Vector" d="M8.01843 19.124L0.253456 10.7018C0.16129 10.6016 0.0961595 10.493 0.0580643 10.376C0.0193546 10.259 0 10.1337 0 10C0 9.86631 0.0193546 9.74098 0.0580643 9.62401C0.0961595 9.50704 0.16129 9.39842 0.253456 9.29815L8.01843 0.850923C8.23349 0.616974 8.50231 0.5 8.82489 0.5C9.14747 0.5 9.42396 0.62533 9.65438 0.875989C9.88479 1.12665 10 1.41909 10 1.7533C10 2.08751 9.88479 2.37995 9.65438 2.63061L2.88018 10L9.65438 17.3694C9.86943 17.6033 9.97696 17.8914 9.97696 18.2337C9.97696 18.5766 9.86175 18.8734 9.63134 19.124C9.40092 19.3747 9.1321 19.5 8.82489 19.5C8.51767 19.5 8.24885 19.3747 8.01843 19.124Z" fill="black"/>
</svg>
