<svg viewBox="0 0 32 32" xmlns="http://www.w3.org/2000/svg">
<g id="ph:arrows-down-up-thin">
<path id="Vector" d="M10.35 11.7C10.3046 11.6531 10.2502 11.6159 10.19 11.5904C10.1299 11.565 10.0653 11.5518 10 11.5518C9.93471 11.5518 9.87009 11.565 9.80997 11.5904C9.74984 11.6159 9.69545 11.6531 9.65 11.7L5.65 15.7C5.60313 15.7454 5.56586 15.7998 5.54041 15.86C5.51496 15.9201 5.50185 15.9847 5.50185 16.05C5.50185 16.1153 5.51496 16.1799 5.54041 16.24C5.56586 16.3002 5.60313 16.3546 5.65 16.4L9.65 20.4C9.74629 20.4722 9.86539 20.5073 9.98545 20.4987C10.1055 20.4902 10.2184 20.4387 10.3036 20.3536C10.3887 20.2684 10.4402 20.1555 10.4487 20.0354C10.4573 19.9154 10.4222 19.7963 10.35 19.7L7.2125 16.55H26C26.1326 16.55 26.2598 16.4973 26.3536 16.4036C26.4473 16.3098 26.5 16.1826 26.5 16.05C26.5 15.9174 26.4473 15.7902 26.3536 15.6964C26.2598 15.6027 26.1326 15.55 26 15.55H7.2125L10.35 12.4C10.3969 12.3546 10.4341 12.3002 10.4596 12.24C10.485 12.1799 10.4982 12.1153 10.4982 12.05C10.4982 11.9847 10.485 11.9201 10.4596 11.86C10.4341 11.7998 10.3969 11.7454 10.35 11.7Z" fill="white"/>
</g>
</svg>
