<svg width="348" height="348" viewBox="0 0 348 348" fill="none" xmlns="http://www.w3.org/2000/svg">
<g opacity="0.05" clip-path="url(#clip0_1585_28002)">
<path d="M196.05 58.1127L220.877 79.9658C236.436 57.1761 236.563 25.7344 219.899 2.58789L200.939 48.5241C199.536 51.8689 197.92 55.08 196.05 58.1127Z" fill="#8E68F3"/>
<path d="M128.076 2.58789L147.036 48.5241C148.397 51.8689 150.055 55.0354 151.968 58.1127C155.368 63.6429 159.535 68.6379 164.338 72.8747L173.989 81.3484L198.22 102.666L258.714 155.961L234.483 177.235L173.989 123.984L149.757 102.666L137.726 92.0519C133.603 88.4395 130.074 84.381 127.098 80.0104C111.539 57.2207 111.369 25.7344 128.076 2.63249V2.58789Z" fill="#8E68F3"/>
<path d="M42.7971 200.291C46.3255 194.939 50.5342 189.988 55.508 185.618L64.0529 178.081L89.2197 155.96L149.756 102.665L173.988 123.983L113.494 177.233L89.2622 198.551L75.5735 210.637C72.0025 213.759 69.1118 217.461 66.9011 221.475C58.3563 236.995 60.1843 257.421 73.3204 271.023C87.4342 285.652 110.05 286.053 125.567 273.164L149.799 294.482L145.548 298.184C132.454 309.69 116.427 315.354 100.57 315.354C80.5899 315.354 60.737 306.434 46.8782 289.086C26.2176 263.219 25.4098 226.782 42.7971 200.246V200.291Z" fill="#8E68F3"/>
<path d="M37.0564 159.215L58.5672 140.261C38.3317 136.514 16.8634 143.382 2.06934 160.107L29.2342 166.886C31.6574 164.21 34.2931 161.623 37.0989 159.17L37.0564 159.215Z" fill="#6ED3D9" style="mix-blend-mode:multiply"/>
<path d="M173.988 230.53L234.482 177.235L258.714 155.961L260.287 154.579C268.959 146.953 279.034 142.181 289.407 140.307C309.643 136.561 331.069 143.429 345.863 160.154L318.74 166.933L299.483 171.749C294.041 173.132 288.77 175.228 283.881 178.127C280.225 180.178 276.824 182.631 273.636 185.441L258.714 198.553L198.22 251.848L173.988 230.53Z" fill="#6ED3D9" style="mix-blend-mode:multiply"/>
<path d="M89.2183 198.55L113.45 177.232L173.944 230.527L198.176 251.845L221.514 272.405C221.812 272.673 222.11 272.896 222.407 273.163C237.924 286.052 260.54 285.695 274.654 271.022C287.79 257.42 289.575 236.949 281.073 221.474L305.135 200.29C322.522 226.781 321.757 263.262 301.054 289.129C287.195 306.478 267.342 315.398 247.361 315.398C231.505 315.398 215.478 309.734 202.384 298.227L198.133 294.526L173.944 273.252L149.712 251.934L89.1758 198.64L89.2183 198.55Z" fill="#8E68F3"/>
</g>
<defs>
<clipPath id="clip0_1585_28002">
<rect width="348" height="348" fill="white"/>
</clipPath>
</defs>
</svg>
