<svg xmlns="http://www.w3.org/2000/svg">
  <svg id="first" width="81" height="68" viewBox="0 0 81 68" fill="none">
    <path id="Vector" d="M29.4264 0.429871C31.9076 0.915718 34.0981 2.33281 35.607 4.3755C38.2223 7.91566 44.4289 14.6832 49.1829 6.98514C54.9005 -2.27281 75.8438 4.67398 79.4311 15.7294C83.7956 29.1786 72.0828 31.2995 77.3209 38.848C82.5589 46.3965 83.183 59.7787 72.4261 60.0345C65.4606 60.2003 60.9598 57.1809 59.0831 59.9323C55.5414 65.1241 54.0102 68.5653 48.2932 67.6366C37.4818 65.8803 37.7622 59.2262 32.4142 55.3628C27.0662 51.4993 1.46663 48.9556 0.926719 32.1216C0.601542 21.9734 19.6359 22.2095 17.4705 15.6845C15.1659 8.73941 20.7023 -1.27837 29.4262 0.430212L29.4264 0.429871Z" fill="#F3F9FF"/>
  </svg>
  <svg id="second" width="71" height="62" viewBox="0 0 71 62" fill="none">
    <path id="Vector" opacity="0.6" d="M11.2788 12.4291C13.3841 11.8462 15.6094 12.1458 17.5381 13.2309C20.8808 15.1113 28.2076 18.2277 29.0391 10.0019C30.0393 0.109204 48.8656 -2.4656 55.7514 5.22127C64.1285 14.5723 55.8286 20.9605 62.6936 25.1041C69.5587 29.2477 75.009 40.0255 66.7585 44.4983C61.416 47.3947 56.8037 46.6905 56.3687 49.7008C55.5477 55.3814 55.6368 58.8232 50.8567 60.3232C41.8172 63.1599 39.5654 57.5667 33.9825 56.5027C28.3997 55.4387 7.59495 63.4859 0.928893 49.8308C-3.08939 41.5989 11.7656 34.2517 7.66413 29.7339C3.29879 24.9252 3.87651 14.4783 11.2788 12.4294L11.2788 12.4291Z" fill="#F3F9FF"/>
  </svg>
</svg>
