<svg viewBox="0 0 82 16" xmlns="http://www.w3.org/2000/svg">
<g id="&#226;&#156;&#143;&#239;&#184;&#143; Header">
<path d="M0.534302 15.3028V1.79372H3.12567L8.88856 11.3273H7.51552L13.1817 1.79372H15.7537L15.7924 15.3028H12.853L12.8336 6.29031H13.3751L8.84988 13.8747H7.43817L2.81625 6.29031H3.47376V15.3028H0.534302Z" fill="#8E68F3"/>
<path d="M23.9548 15.4572C22.7687 15.4572 21.7244 15.2256 20.822 14.7624C19.9324 14.2993 19.2426 13.6688 18.7527 12.8712C18.2628 12.0606 18.0179 11.1407 18.0179 10.1115C18.0179 9.06933 18.2564 8.14942 18.7334 7.35174C19.2233 6.5412 19.8873 5.91077 20.7253 5.46047C21.5633 4.9973 22.5109 4.76572 23.568 4.76572C24.5865 4.76572 25.5019 4.98444 26.3141 5.42187C27.1392 5.84644 27.7903 6.464 28.2673 7.27455C28.7443 8.07223 28.9828 9.03073 28.9828 10.1501C28.9828 10.2658 28.9764 10.4009 28.9635 10.5553C28.9506 10.6968 28.9377 10.8319 28.9248 10.9606H20.4739V9.20442H27.339L26.1787 9.72548C26.1787 9.18512 26.0692 8.71552 25.85 8.31668C25.6308 7.91784 25.3278 7.60906 24.9411 7.39034C24.5543 7.15875 24.1031 7.04296 23.5874 7.04296C23.0717 7.04296 22.614 7.15875 22.2143 7.39034C21.8276 7.60906 21.5246 7.92427 21.3054 8.33597C21.0863 8.73481 20.9767 9.21085 20.9767 9.76408V10.2272C20.9767 10.7933 21.0991 11.2951 21.3441 11.7325C21.6019 12.1571 21.9565 12.4852 22.4077 12.7168C22.8718 12.9355 23.4133 13.0449 24.0322 13.0449C24.5865 13.0449 25.07 12.9612 25.4825 12.794C25.908 12.6267 26.2948 12.3758 26.6429 12.0413L28.248 13.7782C27.7709 14.3186 27.1714 14.7367 26.4495 15.0326C25.7275 15.3157 24.8959 15.4572 23.9548 15.4572Z" fill="#8E68F3"/>
<path d="M35.4585 15.4572C34.4787 15.4572 33.5956 15.2385 32.8091 14.801C32.0227 14.3507 31.3974 13.7267 30.9333 12.9291C30.4821 12.1314 30.2565 11.1922 30.2565 10.1115C30.2565 9.01786 30.4821 8.07223 30.9333 7.27455C31.3974 6.47687 32.0227 5.85931 32.8091 5.42187C33.5956 4.98444 34.4787 4.76572 35.4585 4.76572C36.3352 4.76572 37.1023 4.9587 37.7598 5.34468C38.4173 5.73065 38.9266 6.31604 39.2876 7.10086C39.6485 7.88567 39.829 8.8892 39.829 10.1115C39.829 11.3208 39.655 12.3244 39.3069 13.1221C38.9588 13.9069 38.456 14.4923 37.7985 14.8782C37.1539 15.2642 36.3739 15.4572 35.4585 15.4572ZM35.9807 12.987C36.4706 12.987 36.9154 12.8712 37.315 12.6396C37.7147 12.408 38.0306 12.0799 38.2626 11.6554C38.5076 11.2179 38.63 10.7033 38.63 10.1115C38.63 9.50676 38.5076 8.99213 38.2626 8.56756C38.0306 8.14299 37.7147 7.81491 37.315 7.58333C36.9154 7.35174 36.4706 7.23595 35.9807 7.23595C35.4779 7.23595 35.0266 7.35174 34.627 7.58333C34.2273 7.81491 33.905 8.14299 33.66 8.56756C33.428 8.99213 33.3119 9.50676 33.3119 10.1115C33.3119 10.7033 33.428 11.2179 33.66 11.6554C33.905 12.0799 34.2273 12.408 34.627 12.6396C35.0266 12.8712 35.4779 12.987 35.9807 12.987ZM38.7074 15.3028V13.1799L38.7654 10.0922L38.572 7.02366V0.983171H41.5888V15.3028H38.7074Z" fill="#8E68F3"/>
<path d="M45.2404 15.3028V4.68852C45.2404 3.51773 45.5884 2.58496 46.2846 1.89021C46.9808 1.18259 47.9735 0.828781 49.2628 0.828781C49.7011 0.828781 50.1201 0.873812 50.5198 0.963873C50.9323 1.05393 51.2804 1.19546 51.5641 1.38844L50.7712 3.5692C50.6036 3.4534 50.4166 3.36334 50.2104 3.29901C50.0041 3.23469 49.7849 3.20252 49.5529 3.20252C49.1145 3.20252 48.7729 3.33118 48.5279 3.5885C48.2958 3.83295 48.1798 4.20605 48.1798 4.70782V5.67276L48.2572 6.96577V15.3028H45.2404ZM43.6353 7.46753V5.15169H50.8485V7.46753H43.6353Z" fill="#8E68F3"/>
<path d="M58.5444 15.3028V13.2764L58.351 12.8326V9.20442C58.351 8.56113 58.1511 8.05936 57.7515 7.69912C57.3647 7.33888 56.7652 7.15875 55.953 7.15875C55.3986 7.15875 54.8507 7.24882 54.3092 7.42894C53.7806 7.59619 53.3294 7.82778 52.9555 8.12369L51.8726 6.02013C52.4398 5.62129 53.1231 5.31251 53.9225 5.09379C54.7218 4.87508 55.534 4.76572 56.3591 4.76572C57.9449 4.76572 59.1761 5.13882 60.0528 5.88504C60.9295 6.63126 61.3678 7.79561 61.3678 9.37811V15.3028H58.5444ZM55.3728 15.4572C54.5606 15.4572 53.8644 15.3221 53.2843 15.0519C52.7041 14.7689 52.2593 14.3893 51.9499 13.9133C51.6405 13.4373 51.4858 12.9033 51.4858 12.3115C51.4858 11.6939 51.6341 11.1536 51.9306 10.6904C52.24 10.2272 52.7235 9.86701 53.381 9.60969C54.0385 9.33951 54.8958 9.20442 55.953 9.20442H58.7184V10.9606H56.2818C55.5727 10.9606 55.0828 11.0764 54.812 11.308C54.5542 11.5396 54.4253 11.829 54.4253 12.1764C54.4253 12.5624 54.5735 12.8712 54.87 13.1028C55.1795 13.3215 55.5985 13.4308 56.127 13.4308C56.6298 13.4308 57.0811 13.315 57.4807 13.0835C57.8804 12.839 58.1705 12.4852 58.351 12.022L58.8151 13.4115C58.5959 14.0806 58.1963 14.5888 57.6161 14.9361C57.036 15.2835 56.2882 15.4572 55.3728 15.4572Z" fill="#8E68F3"/>
<path d="M67.5984 15.4572C66.7089 15.4572 65.8515 15.3543 65.0264 15.1484C64.2142 14.9297 63.5696 14.6595 63.0926 14.3379L64.0982 12.1764C64.5752 12.4723 65.136 12.7168 65.7806 12.9098C66.4381 13.0899 67.0827 13.1799 67.7145 13.1799C68.4107 13.1799 68.9006 13.0963 69.1842 12.9291C69.4807 12.7618 69.629 12.5302 69.629 12.2343C69.629 11.9899 69.513 11.8097 69.2809 11.6939C69.0617 11.5653 68.7652 11.4688 68.3913 11.4045C68.0174 11.3401 67.6049 11.2758 67.1537 11.2115C66.7153 11.1472 66.2705 11.0635 65.8193 10.9606C65.3681 10.8448 64.9555 10.6776 64.5816 10.4588C64.2077 10.2401 63.9048 9.9442 63.6727 9.57109C63.4535 9.19798 63.344 8.71552 63.344 8.12369C63.344 7.46753 63.5309 6.88857 63.9048 6.38681C64.2915 5.88504 64.8459 5.49263 65.5679 5.20959C66.2899 4.91367 67.1537 4.76572 68.1593 4.76572C68.8683 4.76572 69.5903 4.84291 70.3252 4.9973C71.06 5.15169 71.6724 5.37684 72.1623 5.67276L71.1567 7.81491C70.6539 7.519 70.1447 7.31958 69.629 7.21665C69.1262 7.10086 68.6363 7.04296 68.1593 7.04296C67.4889 7.04296 66.9989 7.13302 66.6895 7.31314C66.3801 7.49327 66.2254 7.72485 66.2254 8.0079C66.2254 8.26521 66.335 8.4582 66.5542 8.58686C66.7862 8.71552 67.0892 8.81844 67.4631 8.89564C67.8369 8.97283 68.243 9.04359 68.6814 9.10792C69.1326 9.15939 69.5839 9.24302 70.0351 9.35881C70.4863 9.4746 70.8924 9.64185 71.2534 9.86057C71.6273 10.0664 71.9303 10.3559 72.1623 10.729C72.3944 11.0893 72.5104 11.5653 72.5104 12.1571C72.5104 12.8004 72.317 13.3729 71.9303 13.8747C71.5435 14.3636 70.9827 14.7496 70.2478 15.0326C69.5258 15.3157 68.6427 15.4572 67.5984 15.4572Z" fill="#8E68F3"/>
<path d="M78.6262 15.4572C77.4015 15.4572 76.4474 15.1484 75.7641 14.5309C75.0808 13.9004 74.7392 12.9677 74.7392 11.7325V2.62356H77.756V11.6939C77.756 12.1314 77.872 12.4723 78.1041 12.7168C78.3362 12.9484 78.652 13.0642 79.0517 13.0642C79.5287 13.0642 79.9348 12.9355 80.27 12.6782L81.0822 14.801C80.7728 15.0198 80.3989 15.187 79.9606 15.3028C79.5352 15.4057 79.0904 15.4572 78.6262 15.4572ZM73.1341 7.46753V5.15169H80.3474V7.46753H73.1341Z" fill="#8E68F3"/>
</g>
</svg>