<svg viewBox="0 0 47 47" xmlns="http://www.w3.org/2000/svg">
<g id="Logo" clip-path="url(#clip0_5170_1979)">
<g id="Group">
<g id="a">
<g id="Group_2">
<g id="Vector" style="mix-blend-mode:multiply">
<path d="M3.19923 41.6886C7.96727 47.4516 16.3057 48.1594 21.9003 43.234L23.0136 42.2548L19.8143 39.4353L19.252 39.9249C17.5202 41.4467 15.4005 42.1958 13.3032 42.1958C10.6605 42.1958 8.03475 41.0161 6.20175 38.7215C3.46912 35.3003 3.36229 30.4811 5.66197 26.9714C6.12865 26.2635 6.6853 25.6088 7.34316 25.0307L8.47332 24.0338L11.802 21.1081L19.8087 14.0592L18.2175 12.6553C17.6721 12.1775 17.2054 11.6407 16.8118 11.0626L7.74799 19.0435L4.90291 21.5505C4.53743 21.8749 4.18882 22.217 3.86271 22.5709C3.37353 23.0959 2.93496 23.6563 2.54137 24.2403C-0.967189 29.4311 -0.939076 36.7042 3.19361 41.6945L3.19923 41.6886Z" fill="white"/>
</g>
<g id="Vector_2" style="mix-blend-mode:multiply">
<path d="M25.9319 8.17227L29.2155 11.0626C31.2734 8.0484 31.2903 3.88983 29.0862 0.828415L26.5785 6.90406C26.3929 7.34646 26.1793 7.77116 25.9319 8.17227Z" fill="#8E68F3"/>
</g>
<g id="Vector_3" style="mix-blend-mode:multiply">
<path d="M26.5785 6.89816L29.0862 0.828421C29.0018 0.710447 28.9175 0.598373 28.8275 0.486298L23.0193 5.60045L25.9318 8.17228C26.1792 7.77117 26.3929 7.34646 26.5785 6.90406V6.89816Z" fill="white"/>
</g>
<g id="Vector_4" style="mix-blend-mode:multiply">
<path d="M16.9412 0.828421C17.0255 0.710447 17.1098 0.598373 17.1998 0.486298L23.0137 5.60045L25.9262 8.17228L29.2099 11.0626L38.2737 19.0435C36.8961 19.2913 35.5692 19.9224 34.4221 20.9311L34.2141 21.114L26.213 14.0651L23.0081 11.2455L21.7317 10.1247C21.0963 9.56436 20.5397 8.90371 20.0955 8.17228C19.8425 7.77117 19.6288 7.34646 19.4433 6.90406L16.9412 0.828421Z" fill="white"/>
</g>
<g id="Vector_5" style="mix-blend-mode:multiply">
<path d="M16.9412 0.828415L19.4489 6.90406C19.6288 7.34646 19.8481 7.76526 20.1011 8.17227C20.5509 8.90371 21.1019 9.56436 21.7373 10.1247L23.0137 11.2455L26.2186 14.0651L34.2197 21.114L31.0148 23.9276L23.0137 16.8846L19.8087 14.0651L18.2175 12.6612C17.6721 12.1834 17.2054 11.6466 16.8118 11.0685C14.7539 8.0543 14.7314 3.88983 16.9412 0.834314V0.828415Z" fill="#8E68F3"/>
</g>
<g id="Vector_6" style="mix-blend-mode:multiply">
<path d="M8.84448 29.7792C9.13686 29.2483 9.51921 28.7587 9.99151 28.3458L11.802 26.7472L19.8087 33.7962L23.0137 36.6157L26.213 39.4294L26.7753 39.919C28.5071 41.4408 30.6268 42.19 32.7241 42.19C35.3667 42.19 37.9925 41.0102 39.8255 38.7156C42.5638 35.2944 42.665 30.4693 40.3653 26.9655L43.4803 24.2226C46.9945 29.4075 46.9607 36.6865 42.8281 41.6768C38.06 47.4398 29.7216 48.1476 24.127 43.2222L23.0137 42.2431L19.8144 39.4235L16.6094 36.6039L8.85011 29.7733L8.84448 29.7792Z" fill="white"/>
</g>
<g id="Vector_7" style="mix-blend-mode:multiply">
<path d="M5.66201 26.9773C6.1287 26.2694 6.68534 25.6147 7.3432 25.0366L8.47336 24.0397L11.802 21.114L19.8087 14.0651L23.0137 16.8846L15.0126 23.9277L11.8076 26.7472L9.99711 28.3458C9.5248 28.7587 9.14246 29.2483 8.85008 29.7791C7.71992 31.8319 7.96169 34.5335 9.69911 36.3326C11.5658 38.2673 14.5571 38.3204 16.6094 36.6157L19.8143 39.4353L19.2521 39.9249C17.5203 41.4467 15.4005 42.1959 13.3033 42.1959C10.6606 42.1959 8.03479 41.0161 6.20179 38.7215C3.46916 35.3003 3.36233 30.4811 5.66201 26.9714V26.9773Z" fill="#8E68F3"/>
</g>
<path id="Vector_8" style="mix-blend-mode:multiply" d="M4.90287 21.5446L7.74795 19.0376C5.07155 18.5422 2.23209 19.4506 0.275391 21.6626L3.86829 22.5592C4.18879 22.2052 4.53739 21.8631 4.90849 21.5387L4.90287 21.5446Z" fill="#6ED3D9"/>
<g id="Vector_9" style="mix-blend-mode:multiply">
<path d="M2.54708 24.2344C2.94067 23.6504 3.37924 23.09 3.86842 22.5651L0.275512 21.6685C0.179926 21.7746 0.0899631 21.8808 0 21.9929L2.54708 24.2344Z" fill="white"/>
</g>
<path id="Vector_10" style="mix-blend-mode:multiply" d="M23.0137 30.9766L31.0148 23.9277L34.2197 21.114L34.4277 20.9311C35.5748 19.9225 36.9074 19.2913 38.2793 19.0435C40.9557 18.5481 43.7895 19.4565 45.7462 21.6685L42.159 22.5651L39.6119 23.2021C38.8922 23.385 38.195 23.6622 37.5483 24.0456C37.0648 24.317 36.615 24.6414 36.1933 25.013L34.2197 26.7472L26.2186 33.7961L23.0137 30.9766Z" fill="#6ED3D9"/>
<g id="Vector_11" style="mix-blend-mode:multiply">
<path d="M26.2186 33.7961L34.2197 26.7472L36.1933 25.013C36.615 24.6414 37.0648 24.317 37.5484 24.0456C38.195 23.6681 38.8922 23.385 39.6119 23.2021L42.159 22.5651L45.7463 21.6685C45.8418 21.7746 45.9318 21.8808 46.0218 21.9929L43.4747 24.2344L40.3597 26.9773L37.1773 29.7791L29.4179 36.6098C29.3786 36.5744 29.3392 36.5449 29.2999 36.5095L26.213 33.7902L26.2186 33.7961Z" fill="white"/>
</g>
<g id="Vector_12" style="mix-blend-mode:multiply">
<path d="M11.8019 26.7472L15.0068 23.9277L23.0079 30.9766L26.2129 33.7961L29.2997 36.5154C29.3391 36.5508 29.3784 36.5803 29.4178 36.6157C31.4701 38.3204 34.4614 38.2732 36.3281 36.3326C38.0655 34.5335 38.3017 31.826 37.1771 29.7791L40.3596 26.9773C42.6592 30.4811 42.558 35.3062 39.8198 38.7274C37.9868 41.022 35.361 42.2018 32.7183 42.2018C30.6211 42.2018 28.5013 41.4526 26.7695 39.9308L26.2072 39.4412L23.0079 36.6275L19.803 33.8079L11.7963 26.759L11.8019 26.7472Z" fill="#8E68F3"/>
</g>
</g>
</g>
</g>
</g>
<defs>
<clipPath id="clip0_5170_1979">
<rect width="46.0274" height="46.0274" fill="white" transform="translate(0 0.486298)"/>
</clipPath>
</defs>
</svg>
