<svg width="126" height="103" viewBox="0 0 126 103" fill="none" xmlns="http://www.w3.org/2000/svg">
<g id="Logo 1">
<path id="Vector" d="M9.47876 65.2791C14.8188 49.8391 19.6688 32.0191 25.9388 16.4191C29.1688 7.38914 37.6988 -2.18086 46.8788 6.26914C51.7388 11.0191 54.1188 19.1691 56.4988 25.5791C57.9688 29.5891 59.4388 32.4291 61.0188 32.8291C64.3188 33.3191 66.3688 27.1191 67.7088 24.5391C70.9088 17.4491 73.3388 10.0091 79.5188 5.62914C91.9488 -2.13086 98.8788 14.7691 101.929 24.3191" stroke="#8E68F3" stroke-width="5" stroke-linecap="round" stroke-linejoin="round"/>
<path id="Vector_2" d="M16.6287 67.3805C15.2587 71.3005 10.9787 73.3705 7.0487 72.0105C3.1187 70.6505 1.0587 66.3605 2.4187 62.4305C3.7887 58.5105 8.0687 56.4405 11.9987 57.8005C15.9187 59.1705 17.9887 63.4505 16.6287 67.3805Z" fill="#8E68F3"/>
<g id="Vector_3" style="mix-blend-mode:multiply">
<path d="M110.789 49.3906C113.979 58.4506 117.289 67.9206 120.429 77.0406C121.459 80.1106 122.429 83.3606 122.569 86.5506C123.549 95.9006 112.769 102.511 105.269 96.4706C101.249 93.4306 98.8387 87.5706 96.4387 81.9606C94.6387 77.7606 92.8787 73.6306 91.1187 69.5506" stroke="#8E68F3" stroke-width="5" stroke-linecap="round" stroke-linejoin="round"/>
</g>
<path id="Vector_4" d="M101.059 38.5078C86.5187 46.8878 84.3387 53.3178 77.4987 71.5678C75.2687 76.7478 72.5987 82.6378 67.4987 85.3878C60.5887 88.9078 53.4586 83.7678 50.0486 77.4778C47.4686 73.1778 46.2487 67.9878 44.1087 63.7578C41.2087 57.8578 38.6187 62.4878 36.9487 66.3178C35.2087 70.3178 33.5987 74.7078 31.9687 78.8278C29.3787 85.3378 27.3687 91.6678 23.4887 95.4678C20.2887 98.7778 14.9687 100.768 10.6587 98.6178C5.69865 95.9978 4.34865 89.7678 2.61865 84.2978" stroke="#6ED3D9" stroke-width="5" stroke-linecap="round" stroke-linejoin="round"/>
<path id="Vector_5" d="M97.1586 32.0906C100.809 30.1206 105.379 31.4806 107.349 35.1306C109.319 38.7806 107.959 43.3505 104.309 45.3205C100.659 47.2906 96.0886 45.9305 94.1186 42.2805C92.1486 38.6305 93.5086 34.0606 97.1586 32.0906Z" fill="#6ED3D9"/>
</g>
</svg>
