<svg width="230" height="150" viewBox="0 0 230 150" fill="none" xmlns="http://www.w3.org/2000/svg">
<g id="Frame 18335">
<path id="Vector" opacity="0.2" d="M93.5 141C128.57 141 157 114.809 157 82.5C157 50.1913 128.57 24 93.5 24C58.4299 24 30 50.1913 30 82.5C30 114.809 58.4299 141 93.5 141Z" fill="#87BEFF"/>
<path id="Vector_2" opacity="0.4" d="M155 92C179.853 92 200 73.4198 200 50.5C200 27.5802 179.853 9 155 9C130.147 9 110 27.5802 110 50.5C110 73.4198 130.147 92 155 92Z" fill="#87BEFF"/>
<g id="Group 18231">
<path id="Vector_3" d="M202.085 28.6656C202.447 29.4309 202.578 30.2807 202.46 31.1089C202.342 31.9371 201.982 32.7071 201.424 33.3227L193.793 41.7342C193.039 42.5616 191.981 43.0497 190.851 43.0913C189.72 43.1329 188.609 42.7246 187.762 41.9561C186.916 41.1881 186.402 40.1225 186.335 38.9938C186.268 37.8651 186.652 36.7657 187.404 35.9376L195.035 27.5261C195.593 26.912 196.324 26.479 197.135 26.2808C197.947 26.0827 198.805 26.1282 199.601 26.4116" stroke="#808080" stroke-linecap="round" stroke-linejoin="round"/>
<path id="Vector_4" d="M187.753 41.9456C186.907 41.1775 186.393 40.1119 186.326 38.9832C186.259 37.8545 186.643 36.7551 187.394 35.927L191.212 31.7188L197.601 37.5154L193.783 41.7236C193.03 42.551 191.972 43.0391 190.842 43.0807C189.711 43.1223 188.6 42.7141 187.753 41.9456Z" stroke="#808080" stroke-linecap="round" stroke-linejoin="round"/>
<path id="Vector_5" d="M195.05 20.1022L187.008 19.5243C186.447 19.4828 185.898 19.3316 185.392 19.0792C184.885 18.8268 184.432 18.4784 184.056 18.0537C183.681 17.629 183.392 17.1365 183.206 16.6044C183.019 16.0722 182.939 15.5109 182.97 14.9525C183.031 13.8242 183.539 12.7761 184.383 12.0382C185.226 11.3004 186.336 10.9331 187.468 11.0169L198.921 11.8466C200.052 11.9322 201.113 12.4619 201.87 13.3191C202.627 14.1763 203.019 15.2911 202.959 16.4185C202.897 17.5402 202.394 18.5825 201.557 19.3185C200.721 20.0544 199.62 20.4245 198.493 20.348L197.57 20.2817" stroke="#808080" stroke-linecap="round" stroke-linejoin="round"/>
<path id="Vector_6" d="M182.952 14.9724C183.013 13.8441 183.522 12.796 184.365 12.0582C185.208 11.3203 186.318 10.953 187.451 11.0369L193.191 11.4512L192.764 19.9525L187.023 19.5382C186.461 19.5009 185.908 19.3529 185.399 19.1027C184.889 18.8526 184.432 18.5053 184.053 18.0809C183.675 17.6564 183.382 17.1632 183.193 16.6297C183.004 16.0962 182.922 15.533 182.952 14.9724Z" stroke="#808080" stroke-linecap="round" stroke-linejoin="round"/>
</g>
<g id="Group 18230">
<path id="Vector_7" d="M146.519 90.5986C144.819 91.0652 143.31 92.0387 142.202 93.3834C141.094 94.7282 140.442 96.3775 140.337 98.1017H129.822C129.703 97.1904 129.254 96.3511 128.557 95.7359C127.859 95.1208 126.959 94.7705 126.02 94.7486C125.082 94.7267 124.166 95.0347 123.439 95.6167C122.713 96.1986 122.223 97.0161 122.06 97.9207C121.897 98.8254 122.07 99.7574 122.549 100.548C123.028 101.338 123.78 101.934 124.67 102.228C125.559 102.523 126.527 102.495 127.398 102.151C128.269 101.807 128.985 101.169 129.416 100.353H140.506C140.83 101.829 141.559 103.191 142.616 104.292C143.672 105.393 145.016 106.191 146.502 106.6C147.988 107.009 149.559 107.014 151.048 106.614C152.536 106.213 153.885 105.424 154.948 104.329L160.386 108.463" stroke="#808080" stroke-linecap="round" stroke-linejoin="round"/>
<path id="Vector_8" d="M163.339 110.707L169.974 115.757C169.798 116.192 169.707 116.655 169.705 117.122C169.7 117.988 169.993 118.83 170.537 119.513C171.08 120.196 171.843 120.68 172.702 120.887C173.561 121.095 174.466 121.014 175.272 120.657C176.078 120.3 176.738 119.689 177.146 118.921C177.554 118.152 177.685 117.272 177.52 116.422C177.355 115.572 176.902 114.801 176.234 114.233C175.566 113.665 174.723 113.333 173.839 113.291C172.955 113.249 172.083 113.499 171.362 114.001L156.283 102.529C157.014 101.192 157.354 99.6829 157.266 98.1687C157.178 96.6545 156.666 95.1933 155.784 93.9455L164.988 82.3983C165.768 82.6915 166.623 82.7328 167.428 82.5163C168.234 82.2998 168.947 81.8369 169.464 81.1951C169.981 80.5534 170.274 79.7666 170.301 78.95C170.328 78.1334 170.087 77.3297 169.614 76.6567C169.14 75.9837 168.459 75.4767 167.669 75.2098C166.88 74.943 166.024 74.9303 165.227 75.1737C164.429 75.4171 163.733 75.9038 163.238 76.5624C162.744 77.2211 162.478 78.0173 162.48 78.8343C162.478 79.6231 162.731 80.3923 163.201 81.0327L154.22 92.2873C152.694 91.0291 150.762 90.3405 148.767 90.344" stroke="#808080" stroke-linecap="round" stroke-linejoin="round"/>
</g>
<g id="Group 18232">
<path id="Vector_9" d="M62.4645 98.739C60.5048 99.418 58.7497 100.565 57.359 102.077C55.9682 103.589 54.9859 105.417 54.5015 107.394C53.7835 104.513 52.0138 101.988 49.5255 100.294C47.0371 98.6006 44.0017 97.855 40.9906 98.1978C37.9795 98.5406 35.2003 99.9483 33.1761 102.156C31.1519 104.363 30.0224 107.219 30 110.184C30 113.174 31.3272 115.83 33.226 118.26H46.5997L50.5948 108.912C50.6621 108.761 50.7749 108.632 50.9182 108.544C51.0616 108.456 51.2289 108.413 51.398 108.42C51.5664 108.427 51.7285 108.485 51.8615 108.587C51.9945 108.688 52.0918 108.828 52.1398 108.986L56.9788 124.599L60.6677 113.074C60.7184 112.913 60.8203 112.771 60.9586 112.671C61.0969 112.57 61.2644 112.516 61.4368 112.514C61.6084 112.517 61.7754 112.569 61.9162 112.665C62.0569 112.762 62.1649 112.897 62.2262 113.054L64.268 118.82H75.3141C77.4308 116.383 79.0166 113.653 79.0166 110.164C79.0166 106.938 77.7065 103.844 75.3746 101.563C73.0427 99.2816 69.8799 98 66.5821 98" stroke="#808080" stroke-linecap="round" stroke-linejoin="round"/>
<path id="Vector_10" d="M48.172 132.814C50.3023 134.898 52.4393 136.982 54.624 138.999C59.6128 134.179 64.6356 129.385 69.5972 124.525C70.9584 123.193 72.4557 121.861 73.8373 120.45H63.6964C63.5257 120.451 63.359 120.399 63.2198 120.302C63.0807 120.205 62.976 120.069 62.9205 119.911L61.4913 115.916L57.748 127.581C57.6969 127.745 57.5932 127.888 57.4522 127.99C57.3113 128.092 57.1406 128.147 56.9653 128.147C56.7894 128.145 56.6186 128.089 56.4777 127.986C56.3369 127.883 56.2335 127.739 56.1826 127.574L51.2415 111.595L47.9134 119.398C47.851 119.544 47.7462 119.669 47.612 119.758C47.4777 119.847 47.3199 119.895 47.1579 119.897H34.5601C37.2824 122.86 40.6446 125.477 43.1696 127.92C44.279 128.992 45.3884 130.077 46.4909 131.163" stroke="#808080" stroke-linecap="round" stroke-linejoin="round"/>
</g>
<g id="Group 18229">
<path id="Vector_11" d="M64.8262 30.1591L46.1354 56.2919C45.7453 56.8374 45.2492 57.3023 44.6754 57.6602C44.1016 58.0181 43.4614 58.2619 42.7913 58.3777C42.1212 58.4935 41.4343 58.4791 40.7699 58.3353C40.1055 58.1914 39.4765 57.921 38.919 57.5393C38.3614 57.1577 37.8862 56.6724 37.5203 56.1111C37.1545 55.5498 36.9053 54.9235 36.7869 54.2679C36.6685 53.6124 36.6832 52.9405 36.8302 52.2905C36.9773 51.6405 37.2538 51.0253 37.6439 50.4798L61.6396 16.9297L70.1311 22.7418L65.9277 28.6189" stroke="#808080" stroke-linecap="round" stroke-linejoin="round"/>
<path id="Vector_12" d="M38.9271 57.5276C37.801 56.7569 37.0341 55.5801 36.795 54.2562C36.5558 52.9323 36.8641 51.5697 37.652 50.4681L52.8472 29.2227L61.3387 35.0348L46.1435 56.2802C45.754 56.8264 45.2581 57.292 44.6844 57.6504C44.1106 58.0088 43.4702 58.2529 42.7999 58.3688C42.1295 58.4846 41.4424 58.47 40.7778 58.3257C40.1132 58.1813 39.4843 57.9101 38.9271 57.5276Z" stroke="#808080" stroke-linecap="round" stroke-linejoin="round"/>
<path id="Vector_13" d="M70.1316 22.7417L71.3479 23.5742L73.5112 20.5495L62.5928 13.0762L60.4294 16.1009L61.6401 16.9295" stroke="#808080" stroke-linecap="round" stroke-linejoin="round"/>
<path id="Vector_14" d="M31.6836 32.0123L48.7837 8.10352L57.2752 13.9156L33.2874 47.4546C32.4995 48.5562 31.2966 49.3065 29.9433 49.5404C28.5899 49.7744 27.197 49.4728 26.071 48.702C24.9449 47.9313 24.178 46.7545 23.9389 45.4306C23.6997 44.1067 24.008 42.7441 24.7959 41.6425L30.1088 34.2141" stroke="#808080" stroke-linecap="round" stroke-linejoin="round"/>
<path id="Vector_15" d="M31.684 32.0146L39.9795 20.416L48.471 26.2281L33.2758 47.4736C32.4879 48.5752 31.285 49.3254 29.9317 49.5594C28.5784 49.7933 27.1855 49.4917 26.0594 48.721C25.5011 48.3399 25.0252 47.8549 24.6588 47.2936C24.2925 46.7323 24.0429 46.1058 23.9244 45.4501C23.806 44.7943 23.821 44.1221 23.9685 43.472C24.1161 42.8218 24.3933 42.2066 24.7843 41.6615L29.6399 34.8725" stroke="#808080" stroke-linecap="round" stroke-linejoin="round"/>
<path id="Vector_16" d="M57.2637 13.935L58.4743 14.7636L60.6377 11.7389L49.7192 4.26562L47.5559 7.29036L48.7722 8.12289" stroke="#808080" stroke-linecap="round" stroke-linejoin="round"/>
</g>
</g>
</svg>
