<svg width="231" height="140" viewBox="0 0 231 140" fill="none" xmlns="http://www.w3.org/2000/svg">
<g id="Frame 18335">
<g id="character-3">
<path id="Vector" d="M116.752 133.936C146.731 133.936 171.033 111.465 171.033 83.7444C171.033 56.0243 146.731 33.5527 116.752 33.5527C86.7736 33.5527 62.4712 56.0243 62.4712 83.7444C62.4712 111.465 86.7736 133.936 116.752 133.936Z" fill="#87BEFF"/>
<g id="Vector_2">
<path d="M87.0999 137.655L87.2865 97.5191C87.2865 97.5191 79.6207 98.4991 78.3381 98.6717C77.0554 98.8443 76.4653 97.469 72.7919 94.078C69.1186 90.6869 69.6786 81.3602 74.4479 78.3088C79.2173 75.2575 89.6652 64.0598 90.3999 63.3805C91.1345 62.7012 96.2712 63.3805 98.2885 63.7202C100.306 64.0598 103.973 65.9474 104.913 66.0978C105.852 66.2481 112.621 67.2838 112.621 67.2838L137.563 71.5212C139.58 71.8609 148.565 76.7776 150.769 77.0894C152.973 77.4012 155.538 80.653 155.906 82.1787C156.273 83.7044 159.754 110.838 161.223 112.704C162.692 114.569 167.642 138.133 167.642 138.133" fill="white"/>
<path d="M87.0999 137.655L87.2865 97.5191C87.2865 97.5191 79.6207 98.4991 78.3381 98.6717C77.0554 98.8443 76.4653 97.469 72.7919 94.078C69.1186 90.6869 69.6786 81.3602 74.4479 78.3088C79.2173 75.2575 89.6652 64.0598 90.3999 63.3805C91.1345 62.7012 96.2712 63.3805 98.2885 63.7202C100.306 64.0598 103.973 65.9474 104.913 66.0978C105.852 66.2481 112.621 67.2838 112.621 67.2838L137.563 71.5212C139.58 71.8609 148.565 76.7776 150.769 77.0894C152.973 77.4012 155.538 80.653 155.906 82.1787C156.273 83.7044 159.754 110.838 161.223 112.704C162.692 114.569 167.642 138.133 167.642 138.133" stroke="#263238" stroke-linecap="round" stroke-linejoin="round"/>
</g>
<path id="Vector_3" d="M129.078 80.5592H131.348L137.948 83.037L130.523 76.9287L129.078 80.5592Z" fill="#263238" stroke="#263238" stroke-linecap="round" stroke-linejoin="round"/>
<path id="Vector_4" d="M114.837 81.1326L123.713 79.9855L120.618 75.7871L114.837 81.1326Z" fill="#263238" stroke="#263238" stroke-linecap="round" stroke-linejoin="round"/>
<path id="Vector_5" d="M92.5072 71.2891C92.5072 71.2891 93.5008 83.7006 92.0074 88.9904C90.5139 94.2801 89.2734 95.6722 89.2734 95.6722" stroke="#263238" stroke-linecap="round" stroke-linejoin="round"/>
<g id="Vector_6">
<path d="M91.5026 100.177C91.2798 100.889 91.0449 101.602 90.792 102.321L91.5026 100.177Z" fill="white"/>
<path d="M91.5026 100.177C91.2798 100.889 91.0449 101.602 90.792 102.321" stroke="#263238" stroke-linecap="round" stroke-linejoin="round"/>
</g>
<g id="Vector_7">
<path d="M94.7476 79.7979C94.6016 85.9649 93.7149 92.0978 92.104 98.0838L94.7476 79.7979Z" fill="white"/>
<path d="M94.7476 79.7979C94.6016 85.9649 93.7149 92.0978 92.104 98.0838" stroke="#263238" stroke-linecap="round" stroke-linejoin="round"/>
</g>
<path id="Vector_8" d="M153.04 135.373C153.04 135.373 149.463 120.678 149.824 119.152C150.186 117.627 151.294 90.1533 151.294 90.1533" stroke="#263238" stroke-linecap="round" stroke-linejoin="round"/>
<path id="Vector_9" d="M107.159 74.8965C107.488 75.7391 107.841 76.6412 108.219 77.6026" stroke="#263238" stroke-linecap="round" stroke-linejoin="round"/>
<path id="Vector_10" d="M103.793 66.7451C103.793 66.7451 104.787 68.9724 106.527 73.349" stroke="#263238" stroke-linecap="round" stroke-linejoin="round"/>
<path id="Vector_11" d="M111.26 91.0381C111.452 91.9792 111.591 92.9289 111.676 93.8834" stroke="#263238" stroke-linecap="round" stroke-linejoin="round"/>
<path id="Vector_12" d="M104.888 74.7344C107.378 79.2554 109.35 84.0049 110.772 88.9054" stroke="#263238" stroke-linecap="round" stroke-linejoin="round"/>
<path id="Vector_13" d="M126.604 84.3574C126.604 84.3574 128.735 102.699 128.735 105.244C128.735 107.788 130.319 136.214 130.319 136.214" stroke="#263238" stroke-linecap="round" stroke-linejoin="round"/>
<path id="Vector_14" d="M148.727 110.245L136.256 109.136V91.1289L148.727 92.2314V110.245Z" fill="white" stroke="#263238" stroke-linecap="round" stroke-linejoin="round"/>
<path id="Vector_15" d="M143.771 92.7833L140.658 92.6107V87.0146L143.771 87.1873V92.7833Z" fill="#87BEFF" stroke="#263238" stroke-linecap="round" stroke-linejoin="round"/>
<path id="Vector_16" d="M116.668 62.9708C116.668 62.9708 115.271 62.8261 114.964 63.2604C114.657 63.6947 111.08 67.4198 111.08 67.4198C111.43 69.3156 111.585 71.2378 111.543 73.1606C111.543 76.8913 113.41 82.6265 113.41 82.6265L121.01 78.0439L125.978 76.7521C126.952 76.5954 127.948 76.5954 128.922 76.7521C128.922 76.7521 139.792 85.2213 140.412 84.9318C141.032 84.6422 138.551 75.1707 136.841 71.0113C135.131 66.8519 130.319 64.5522 130.319 64.5522C130.319 64.5522 119.305 62.6868 116.668 62.9708Z" fill="white" stroke="#263238" stroke-linecap="round" stroke-linejoin="round"/>
<path id="Vector_17" d="M114.65 45.4584C111.87 45.8898 109.222 46.8698 106.888 48.3316C103.473 50.6257 106.424 58.6662 110.615 60.6763C114.807 62.6864 117.751 62.1073 119.461 58.5214C121.172 54.9355 120.395 47.6133 119.305 46.4663C118.215 45.3192 114.65 45.4584 114.65 45.4584Z" fill="#263238"/>
<path id="Vector_18" d="M118.378 48.7598L116.824 64.4064C118.011 68.0332 119.463 71.581 121.172 75.0249C122.695 78.2694 124.508 81.3909 126.592 84.3572C126.592 84.3572 130.313 78.0429 131.247 75.888C132.012 73.8722 132.637 71.8134 133.119 69.724L135.462 60.3861C135.462 60.3861 131.247 59.3839 126.146 55.7924C123.215 53.7937 120.601 51.4267 118.378 48.7598Z" fill="white" stroke="#263238" stroke-linecap="round" stroke-linejoin="round"/>
<path id="Vector_19" d="M135.461 60.3847C135.461 60.3847 131.246 59.3824 126.145 55.7909C124.817 54.8606 123.547 53.8624 122.339 52.8008V59.2098C122.339 59.2098 126.248 65.5408 130.168 67.3505C131.218 67.8203 132.349 68.1144 133.51 68.2191L135.461 60.3847Z" fill="#263238"/>
<path id="Vector_20" d="M146.162 46.3378C146.162 46.3378 147.403 45.1908 147.559 47.6297C147.716 50.0685 146.006 52.0842 144.916 52.9417C143.826 53.7992 143.368 54.0888 143.368 54.0888L146.162 46.3378Z" fill="white" stroke="#263238" stroke-linecap="round" stroke-linejoin="round"/>
<path id="Vector_21" d="M135.462 23.7738C131.395 23.2374 127.263 24.1926 123.948 26.4354C118.432 30.2051 117.926 39.3035 117.926 39.3035C117.926 39.3035 116.011 37.75 114.807 39.7434C113.602 41.7368 113.602 46.8429 114.572 47.2883C115.541 47.7338 116.728 48.1737 116.728 48.1737C116.728 48.1737 118.167 54.8276 119.606 56.8266C121.045 58.8256 126.326 63.9261 129.446 63.9261C132.565 63.9261 137.84 62.3725 140.237 59.4715C142.377 56.7564 144.075 53.7661 145.277 50.5958C146.235 48.1569 147.915 36.4025 147.915 36.4025C147.915 36.4025 148.631 31.0793 144.079 27.3096C139.526 23.54 135.462 23.7738 135.462 23.7738Z" fill="white" stroke="#263238" stroke-linecap="round" stroke-linejoin="round"/>
<path id="Vector_22" d="M119.618 56.8279C121.057 58.8213 126.338 63.9273 129.457 63.9273C132.577 63.9273 137.852 62.3738 140.249 59.4728C142.388 56.7577 144.087 53.7674 145.289 50.5971C145.621 49.5853 145.882 48.555 146.072 47.5123C145.47 46.9555 141.2 43.2025 135.762 42.139C129.861 40.992 119.148 40.1345 119.148 40.1345L117.944 39.2881L116.848 48.5981C117.191 50.1349 118.401 55.1407 119.618 56.8279Z" fill="#F3F5FF" stroke="#263238" stroke-linecap="round" stroke-linejoin="round"/>
<path id="Vector_23" d="M137.931 42.8738C137.931 42.8738 138.864 38.5696 139.328 37.4225C139.791 36.2755 142.899 35.2676 145.229 38.4248" stroke="#263238" stroke-linecap="round" stroke-linejoin="round"/>
<path id="Vector_24" d="M132.656 34.5491C132.656 34.5491 129.555 30.9632 124.587 34.1204" stroke="#263238" stroke-linecap="round" stroke-linejoin="round"/>
<path id="Vector_25" d="M127.971 37.6846C127.802 38.2414 127.327 38.6368 126.917 38.531C126.508 38.4252 126.315 37.8795 126.478 37.306C126.64 36.7325 127.122 36.3483 127.531 36.4541C127.941 36.5598 128.14 37.1111 127.971 37.6846Z" fill="#263238"/>
<path id="Vector_26" d="M141.628 40.7359C141.46 41.2927 140.984 41.6881 140.574 41.5823C140.165 41.4765 139.972 40.9308 140.135 40.3573C140.297 39.7837 140.779 39.4051 141.189 39.5109C141.598 39.6167 141.803 40.1624 141.628 40.7359Z" fill="#263238"/>
<path id="Vector_27" d="M117.938 39.3042C118.187 39.3772 118.455 39.3732 118.702 39.2928C118.949 39.2125 119.16 39.0601 119.305 38.8587C119.775 38.1404 118.841 35.5568 122.256 32.3996C125.67 29.2424 129.554 28.8081 131.415 27.3882C133.276 25.9683 133.589 25.2389 132.348 23.8023C131.108 22.3657 129.241 19.9046 122.412 23.5183C115.583 27.1321 113.096 29.3983 114.186 32.5555C114.773 34.3445 115.663 36.036 116.824 37.5669L117.938 39.3042Z" fill="#263238"/>
<path id="Vector_28" d="M130.794 22.639C130.794 22.639 132.192 25.6513 134.673 26.7984C137.154 27.9454 140.417 28.3798 144.307 30.5347C148.198 32.6895 147.415 39.1431 147.415 39.1431C147.415 39.1431 152.69 41.5819 154.864 37.996C157.038 34.4101 159.079 28.3798 150.516 23.9308C141.953 19.4818 135.606 14.1697 130.794 22.639Z" fill="#263238"/>
<path id="Vector_29" d="M106.557 14.3438V34.7846C106.555 35.3463 106.313 35.8844 105.883 36.2811C105.453 36.6778 104.87 36.9005 104.262 36.9005C103.656 36.899 103.075 36.6756 102.646 36.2791C102.217 35.8826 101.976 35.3453 101.974 34.7846V14.3438H106.557Z" fill="white" stroke="#263238" stroke-linecap="round" stroke-linejoin="round"/>
<path id="Vector_30" d="M106.557 25.1777V34.7662C106.555 35.3278 106.313 35.866 105.883 36.2627C105.453 36.6593 104.87 36.8821 104.262 36.8821C103.656 36.8806 103.075 36.6572 102.646 36.2607C102.217 35.8642 101.976 35.3269 101.974 34.7662V25.1777H106.557Z" fill="#87BEFF" stroke="#263238" stroke-linecap="round" stroke-linejoin="round"/>
<path id="Vector_31" d="M107.274 13.3232H101.222V15.0215H107.274V13.3232Z" fill="white" stroke="#263238" stroke-linecap="round" stroke-linejoin="round"/>
<path id="Vector_32" d="M92.4175 55.0461C92.4175 55.0461 92.4175 54.5394 89.8522 52.8188C87.2869 51.0982 77.5616 50.9535 75.5443 53.1585C73.5269 55.3635 80.6809 61.4662 82.6982 62.3181C84.7156 63.1701 88.3829 61.6388 89.4849 60.4528C90.5869 59.2668 92.4175 55.0461 92.4175 55.0461Z" fill="white" stroke="#263238" stroke-linecap="round" stroke-linejoin="round"/>
<path id="Vector_33" d="M79.2113 42.1562L77.4048 54.874C77.4048 54.874 80.8914 59.284 84.0288 59.4566C87.1662 59.6292 89.9001 56.912 89.9001 56.912L90.6348 44.1942C90.6348 44.1942 83.4327 44.0216 79.2113 42.1562Z" fill="white" stroke="#263238" stroke-linecap="round" stroke-linejoin="round"/>
<path id="Vector_34" d="M81.2282 33.6742C81.2282 33.6742 81.5956 25.3665 81.9629 21.981C82.3302 18.5955 83.4323 16.2123 83.9802 16.2123C84.5282 16.2123 91.3209 11.8135 91.3209 11.8135C91.3209 11.8135 102.323 12.4928 103.425 12.4928C104.527 12.4928 106.725 13.1721 106.544 14.1633L106.357 15.1767C106.452 15.73 106.452 16.2938 106.357 16.8471C106.207 17.1895 105.952 17.4837 105.623 17.6935C105.718 17.9638 105.695 18.258 105.557 18.5124C105.42 18.7667 105.179 18.9607 104.888 19.0521C103.792 19.5588 99.2035 21.7638 99.2035 21.7638C98.0816 23.9117 97.1022 26.1208 96.2709 28.3788C95.5362 30.7565 92.6035 33.2956 92.6035 33.2956C92.6035 33.2956 92.7842 35.6732 92.7842 37.1933C92.666 38.5241 92.3583 39.8347 91.8689 41.091C91.961 41.9948 91.961 42.9046 91.8689 43.8083C91.6882 44.315 91.1342 44.9943 90.5862 44.9943C90.0382 44.9943 85.9976 45.6737 83.9622 45.334C81.9268 44.9943 79.0122 42.7893 79.0122 42.7893L79.9275 39.3983V36.681C79.9456 35.7122 81.2282 33.6742 81.2282 33.6742Z" fill="#F3F5FF" stroke="#263238" stroke-linecap="round" stroke-linejoin="round"/>
<path id="Vector_35" d="M87.4678 33.3357C87.4678 33.3357 91.3218 31.9827 91.6831 29.7777C92.0444 27.5727 93.8811 21.9822 93.8811 21.9822L99.1984 21.8096" stroke="#263238" stroke-linecap="round" stroke-linejoin="round"/>
<path id="Vector_36" d="M89.4839 19.6095C89.4839 19.6095 94.2532 18.0838 95.5359 18.0838C96.8185 18.0838 105.622 17.7441 105.622 17.7441" stroke="#263238" stroke-linecap="round" stroke-linejoin="round"/>
<path id="Vector_37" d="M89.3047 15.7106C91.5241 15.1973 93.7982 14.9135 96.0853 14.8643C99.3913 14.8643 106.359 15.1983 106.359 15.1983" stroke="#263238" stroke-linecap="round" stroke-linejoin="round"/>
<path id="Vector_38" d="M81.0479 40.291C81.0479 40.291 83.4566 42.6631 88.5691 42.1564" stroke="#263238" stroke-linecap="round" stroke-linejoin="round"/>
<path id="Vector_39" d="M91.5019 39.6113C91.5019 39.6113 90.5866 40.1236 86.3652 40.1236" stroke="#263238" stroke-linecap="round" stroke-linejoin="round"/>
<path id="Vector_40" d="M77.381 54.8726L75.5444 53.2021C75.5444 53.2021 65.4578 88.4766 65.2771 91.0213C65.0965 93.566 69.3117 97.8034 71.6964 98.8168C74.0811 99.8302 81.9637 98.9838 84.535 97.7978C87.1063 96.6118 88.7503 91.8621 90.2196 87.4521C91.689 83.0421 90.033 75.2411 90.4003 72.869C90.7676 70.497 92.4176 55.0508 92.4176 55.0508L89.8523 56.9161C89.8523 56.9161 82.6983 56.738 77.381 54.8726Z" fill="white" stroke="#263238" stroke-linecap="round" stroke-linejoin="round"/>
<path id="Vector_41" d="M78.5259 137.896H174.394" stroke="#263238" stroke-linecap="round" stroke-linejoin="round"/>
<g id="Group 18229">
<path id="Vector_42" d="M38.8622 19.7312L24.5825 38.6029C24.2844 38.9967 23.9054 39.3325 23.467 39.5909C23.0287 39.8494 22.5395 40.0254 22.0276 40.1091C21.5156 40.1927 20.9909 40.1823 20.4832 40.0784C19.9756 39.9745 19.4951 39.7792 19.0692 39.5037C18.6432 39.2281 18.2801 38.8776 18.0006 38.4722C17.7211 38.0669 17.5307 37.6146 17.4402 37.1412C17.3497 36.6678 17.361 36.1826 17.4734 35.7132C17.5857 35.2439 17.7969 34.7996 18.095 34.4057L36.4277 10.1777L42.9152 14.3749L39.7038 18.619" stroke="#808080" stroke-linecap="round" stroke-linejoin="round"/>
<path id="Vector_43" d="M19.075 39.4968C18.2147 38.9403 17.6288 38.0905 17.4461 37.1344C17.2634 36.1784 17.4989 35.1944 18.1008 34.3989L29.71 19.0566L36.1975 23.2538L24.5883 38.596C24.2907 38.9904 23.9119 39.3267 23.4736 39.5855C23.0352 39.8443 22.546 40.0206 22.0338 40.1043C21.5217 40.1879 20.9967 40.1774 20.489 40.0731C19.9812 39.9689 19.5008 39.7731 19.075 39.4968Z" stroke="#808080" stroke-linecap="round" stroke-linejoin="round"/>
<path id="Vector_44" d="M42.9149 14.3754L43.8442 14.9766L45.497 12.7923L37.1553 7.39551L35.5025 9.5798L36.4274 10.1782" stroke="#808080" stroke-linecap="round" stroke-linejoin="round"/>
<path id="Vector_45" d="M13.541 21.0712L26.6055 3.80566L33.093 8.00284L14.7663 32.2228C14.1644 33.0182 13.2453 33.56 12.2114 33.729C11.1774 33.8979 10.1133 33.6801 9.25296 33.1236C8.39266 32.567 7.80671 31.7172 7.62402 30.7611C7.44132 29.8051 7.67685 28.8211 8.27877 28.0256L12.3379 22.6612" stroke="#808080" stroke-linecap="round" stroke-linejoin="round"/>
<path id="Vector_46" d="M13.5416 21.0721L19.8794 12.6963L26.3669 16.8935L14.7578 32.2357C14.1558 33.0312 13.2368 33.573 12.2029 33.7419C11.1689 33.9108 10.1047 33.6931 9.24445 33.1365C8.81791 32.8613 8.45428 32.511 8.17439 32.1057C7.8945 31.7004 7.70383 31.248 7.61334 30.7744C7.52284 30.3008 7.53429 29.8154 7.64701 29.3459C7.75974 28.8765 7.97153 28.4322 8.27026 28.0385L11.98 23.1359" stroke="#808080" stroke-linecap="round" stroke-linejoin="round"/>
<path id="Vector_47" d="M33.0843 8.01587L34.0092 8.61426L35.662 6.42997L27.3203 1.0332L25.6675 3.21749L26.5968 3.81869" stroke="#808080" stroke-linecap="round" stroke-linejoin="round"/>
</g>
</g>
<g id="Group 18231">
<path id="Vector_48" d="M187.753 21.1602C188.339 21.3863 188.839 21.765 189.19 22.2489C189.542 22.7328 189.729 23.3005 189.73 23.8811V31.8185C189.728 32.6004 189.387 33.3499 188.781 33.9024C188.175 34.4548 187.354 34.7651 186.497 34.7651C185.641 34.7651 184.82 34.4547 184.215 33.9021C183.61 33.3495 183.27 32.6 183.27 31.8185V23.8811C183.271 23.3012 183.458 22.7341 183.808 22.2504C184.159 21.7666 184.657 21.3875 185.241 21.1602" stroke="#808080" stroke-linecap="round" stroke-linejoin="round"/>
<path id="Vector_49" d="M186.487 34.7643C185.631 34.7643 184.81 34.4538 184.205 33.9013C183.6 33.3487 183.26 32.5992 183.26 31.8177V27.8467H189.719V31.8177C189.718 32.5996 189.377 33.3491 188.771 33.9015C188.165 34.454 187.343 34.7643 186.487 34.7643Z" stroke="#808080" stroke-linecap="round" stroke-linejoin="round"/>
<path id="Vector_50" d="M179.543 20.0319L174.793 23.5095C174.461 23.7512 174.08 23.9308 173.672 24.038C173.265 24.1452 172.838 24.1779 172.416 24.1343C171.994 24.0906 171.586 23.9715 171.215 23.7836C170.844 23.5958 170.517 23.3429 170.253 23.0396C169.719 22.4267 169.474 21.6455 169.57 20.8676C169.667 20.0896 170.097 19.3784 170.768 18.89L177.536 13.9414C178.206 13.4545 179.061 13.2305 179.912 13.3186C180.764 13.4067 181.542 13.7998 182.076 14.4114C182.606 15.0209 182.851 15.797 182.757 16.5706C182.664 17.3443 182.239 18.0529 181.576 18.5422L181.031 18.9417" stroke="#808080" stroke-linecap="round" stroke-linejoin="round"/>
<path id="Vector_51" d="M170.253 23.0587C169.719 22.4458 169.474 21.6646 169.57 20.8867C169.667 20.1087 170.097 19.3975 170.768 18.9091L174.16 16.4277L178.2 21.0285L174.808 23.5098C174.477 23.7547 174.097 23.9374 173.688 24.0474C173.279 24.1573 172.851 24.1923 172.428 24.1504C172.004 24.1085 171.594 23.9904 171.221 23.803C170.848 23.6157 170.519 23.3627 170.253 23.0587Z" stroke="#808080" stroke-linecap="round" stroke-linejoin="round"/>
</g>
<g id="Group 18230">
<path id="Vector_52" d="M194.438 77.6699C193.297 77.9622 192.284 78.5719 191.541 79.4142C190.797 80.2565 190.36 81.2895 190.289 82.3694H183.233C183.153 81.7986 182.851 81.2729 182.383 80.8876C181.915 80.5023 181.311 80.2829 180.681 80.2692C180.051 80.2555 179.437 80.4484 178.949 80.8129C178.462 81.1774 178.133 81.6894 178.024 82.2561C177.914 82.8227 178.03 83.4064 178.352 83.9014C178.673 84.3964 179.178 84.7699 179.775 84.9541C180.372 85.1384 181.022 85.1211 181.606 84.9056C182.19 84.69 182.671 84.2904 182.96 83.7792H190.402C190.62 84.704 191.109 85.557 191.818 86.2465C192.527 86.9361 193.429 87.4358 194.426 87.6921C195.423 87.9483 196.478 87.9513 197.477 87.7007C198.476 87.4501 199.381 86.9554 200.094 86.2699L203.744 88.8593" stroke="#808080" stroke-linecap="round" stroke-linejoin="round"/>
<path id="Vector_53" d="M205.725 90.2653L210.177 93.4281C210.059 93.7004 209.998 93.9905 209.997 94.2834C209.994 94.8255 210.191 95.3528 210.555 95.7805C210.92 96.2083 211.432 96.5115 212.008 96.6416C212.585 96.7716 213.192 96.7208 213.733 96.4973C214.274 96.2739 214.717 95.8908 214.991 95.4096C215.264 94.9285 215.353 94.3773 215.242 93.8448C215.131 93.3122 214.827 92.8293 214.378 92.4736C213.93 92.1179 213.364 91.9102 212.771 91.8839C212.178 91.8575 211.593 92.0141 211.109 92.3284L200.99 85.1429C201.481 84.3052 201.709 83.3603 201.65 82.4119C201.591 81.4635 201.247 80.5483 200.655 79.7667L206.832 72.5342C207.355 72.7179 207.929 72.7438 208.469 72.6082C209.01 72.4726 209.488 72.1826 209.835 71.7807C210.182 71.3787 210.379 70.8859 210.397 70.3744C210.415 69.863 210.254 69.3596 209.936 68.9381C209.618 68.5165 209.161 68.199 208.631 68.0318C208.101 67.8647 207.527 67.8567 206.992 68.0092C206.457 68.1616 205.989 68.4664 205.657 68.879C205.326 69.2916 205.148 69.7902 205.149 70.302C205.147 70.796 205.317 71.2778 205.633 71.6789L199.605 78.7281C198.582 77.94 197.285 77.5088 195.946 77.511" stroke="#808080" stroke-linecap="round" stroke-linejoin="round"/>
</g>
<g id="Group 18232">
<path id="Vector_54" d="M45.3682 93.6213C43.8862 94.1005 42.5589 94.9104 41.5072 95.9774C40.4554 97.0444 39.7126 98.3346 39.3462 99.7306C38.8032 97.6969 37.4649 95.9146 35.5831 94.7191C33.7013 93.5235 31.4057 92.9972 29.1286 93.2392C26.8514 93.4812 24.7496 94.4748 23.2188 96.033C21.688 97.5912 20.8338 99.6065 20.8169 101.7C20.8169 103.81 21.8206 105.685 23.2566 107.4H33.3705L36.3918 100.802C36.4427 100.695 36.528 100.604 36.6364 100.542C36.7448 100.48 36.8713 100.449 36.9992 100.454C37.1266 100.459 37.2491 100.5 37.3497 100.572C37.4503 100.644 37.5239 100.742 37.5602 100.854L41.2197 111.874L44.0094 103.739C44.0478 103.625 44.1248 103.526 44.2294 103.455C44.334 103.384 44.4607 103.345 44.591 103.344C44.7208 103.346 44.8472 103.383 44.9536 103.451C45.06 103.519 45.1417 103.614 45.1881 103.725L46.7322 107.795H55.0858C56.6866 106.075 57.8858 104.148 57.8858 101.686C57.8858 99.4084 56.8951 97.2245 55.1316 95.6144C53.368 94.0042 50.9762 93.0996 48.4822 93.0996" stroke="#808080" stroke-linecap="round" stroke-linejoin="round"/>
<path id="Vector_55" d="M34.5597 117.673C36.1707 119.144 37.7869 120.615 39.4391 122.039C43.2118 118.637 47.0104 115.253 50.7625 111.823C51.7919 110.883 52.9243 109.943 53.9691 108.947H46.3001C46.171 108.947 46.0449 108.911 45.9397 108.842C45.8344 108.774 45.7553 108.677 45.7133 108.566L44.6324 105.746L41.8016 113.98C41.7629 114.095 41.6845 114.197 41.5779 114.269C41.4713 114.341 41.3422 114.379 41.2097 114.379C41.0767 114.378 40.9474 114.339 40.8409 114.266C40.7344 114.193 40.6562 114.091 40.6177 113.975L36.881 102.696L34.3641 108.204C34.3169 108.307 34.2377 108.396 34.1362 108.458C34.0346 108.521 33.9153 108.555 33.7928 108.557H24.2656C26.3244 110.648 28.8671 112.495 30.7766 114.219C31.6156 114.976 32.4546 115.742 33.2884 116.508" stroke="#808080" stroke-linecap="round" stroke-linejoin="round"/>
</g>
</g>
</svg>
