<svg width="18" height="20" viewBox="0 0 18 20" fill="none" xmlns="http://www.w3.org/2000/svg">
<g id="Notification">
<path id="Notification_2" fill-rule="evenodd" clip-rule="evenodd" d="M9.03612 0H8.96479C5.59565 0 2.50654 2.44456 2.20685 5.68096C2.18686 5.91248 2.17324 6.14906 2.16444 6.40391L2.15213 6.99974L2.14969 7.53395L2.16473 7.47306C2.02569 8.15105 1.70525 8.77993 1.23653 9.29378L1.16936 9.3802C0.768036 9.98985 0.537443 10.6955 0.50175 11.4242L0.500904 11.6624C0.480415 12.6208 0.808819 13.5691 1.42663 14.3223C2.26444 15.2069 3.34896 15.7346 4.51296 15.8466C7.49 16.1699 10.502 16.1699 13.4873 15.8457C14.6434 15.7393 15.7311 15.2101 16.5338 14.3582C17.1399 13.6331 17.4707 12.763 17.499 11.862L17.5 11.4587C17.4668 10.698 17.2348 9.99168 16.8286 9.38467L16.7669 9.30546L16.6162 9.12821C16.2776 8.70525 16.0303 8.21802 15.8896 7.69688L15.845 7.50977L15.8358 7.31353C15.833 7.22527 15.8317 7.1274 15.8312 7.00516L15.8311 6.33206C15.8288 6.07458 15.8212 5.89148 15.8034 5.68536C15.4934 2.44285 12.4034 0 9.03612 0ZM8.9651 1.39551H9.03643C11.7339 1.39551 14.1947 3.34091 14.431 5.81342C14.445 5.97574 14.4513 6.1306 14.4531 6.36066L14.4558 7.2653C14.4588 7.40998 14.4645 7.53029 14.4742 7.66567L14.4871 7.75834L14.552 8.03412C14.7443 8.76366 15.0896 9.44425 15.565 10.031L15.7029 10.1927L15.6877 10.1673C15.9513 10.5614 16.1016 11.0187 16.1226 11.4903L16.1219 11.6537C16.1378 12.3098 15.9203 12.9332 15.5087 13.4268C14.9649 14.0021 14.1874 14.3804 13.3517 14.4574C10.453 14.772 7.5396 14.772 4.65199 14.4585C3.80714 14.3772 3.02913 13.9986 2.454 13.3932C2.08118 12.9358 1.866 12.3144 1.87951 11.6776L1.87967 11.4589L1.89713 11.2684C1.93921 10.9497 2.0457 10.6267 2.21076 10.3292L2.29447 10.1907C2.90811 9.50053 3.32924 8.66129 3.51472 7.75683L3.52911 7.61502L3.53563 6.69575L3.55169 6.22936C3.55897 6.08223 3.5683 5.94244 3.57999 5.80694C3.80835 3.34102 6.26683 1.39551 8.9651 1.39551ZM2.29447 10.1907C2.27963 10.2074 2.26467 10.224 2.24961 10.2405L2.29887 10.1834L2.29447 10.1907ZM11.608 17.6907C11.3114 17.4492 10.8776 17.4968 10.639 17.797C10.5356 17.9271 10.4158 18.0438 10.2826 18.1444C9.8308 18.4987 9.26697 18.6565 8.70645 18.5898C8.14675 18.5231 7.63798 18.2382 7.29276 17.7996C7.05557 17.4982 6.62195 17.4486 6.32423 17.6887C6.02652 17.9288 5.97745 18.3677 6.21464 18.6691C6.78706 19.3963 7.62583 19.866 8.54536 19.9755C9.46407 20.085 10.3892 19.8261 11.1168 19.2551C11.3328 19.0923 11.5366 18.8936 11.713 18.6716C11.9516 18.3714 11.9046 17.9323 11.608 17.6907Z" fill="currentColor"/>
</g>
</svg>
