<svg width="20" height="20" viewBox="0 0 20 20" fill="none" xmlns="http://www.w3.org/2000/svg">
<g id="Plus">
<path id="Plus_2" fill-rule="evenodd" clip-rule="evenodd" d="M14.3588 0H5.6412C2.25586 0 0 2.4199 0 5.89317V14.1068C0 17.5833 2.24992 20 5.6412 20H14.3588C17.7501 20 20 17.5833 20 14.1068V5.89317C20 2.41665 17.7501 0 14.3588 0ZM5.64038 1.39551H14.358C16.9555 1.39551 18.6038 3.16603 18.6038 5.89333V14.107C18.6038 16.8343 16.9555 18.6048 14.358 18.6048H5.64038C3.0429 18.6048 1.39453 16.8343 1.39453 14.107V5.89333C1.39453 3.16965 3.04841 1.39551 5.64038 1.39551ZM9.99777 5.88574C10.3496 5.88574 10.6404 6.14821 10.6865 6.48875L10.6928 6.58342V9.29346H13.41C13.7953 9.29346 14.1077 9.60582 14.1077 9.99113C14.1077 10.3443 13.8452 10.6362 13.5047 10.6824L13.41 10.6888H10.6928V13.3986C10.6928 13.7839 10.3816 14.0963 9.99777 14.0963C9.6459 14.0963 9.3551 13.8338 9.30908 13.4933L9.30273 13.3986V10.6888H6.5883C6.20298 10.6888 5.89062 10.3764 5.89062 9.99113C5.89062 9.63793 6.15309 9.34602 6.49363 9.29983L6.5883 9.29346H9.30273V6.58342C9.30273 6.1981 9.61391 5.88574 9.99777 5.88574Z" fill="currentColor"/>
</g>
</svg>
