<svg width="20" height="20" viewBox="0 0 20 20" fill="none" xmlns="http://www.w3.org/2000/svg">
<g id="Search">
<path id="Search_2" fill-rule="evenodd" clip-rule="evenodd" d="M9.61154 0.000976562C4.30323 0.000976562 0 4.20917 0 9.40024C0 14.5913 4.30323 18.7995 9.61154 18.7995C11.8818 18.7995 13.9682 18.0298 15.6128 16.7426L18.7366 19.7894L18.8197 19.8594C19.1097 20.0693 19.5209 20.0454 19.7834 19.7881C20.0721 19.5051 20.0715 19.0467 19.782 18.7644L16.695 15.7534C18.2649 14.0805 19.2231 11.8498 19.2231 9.40024C19.2231 4.20917 14.9198 0.000976562 9.61154 0.000976562ZM9.61157 1.44873C14.1023 1.44873 17.7427 5.00875 17.7427 9.40025C17.7427 13.7918 14.1023 17.3518 9.61157 17.3518C5.12089 17.3518 1.48047 13.7918 1.48047 9.40025C1.48047 5.00875 5.12089 1.44873 9.61157 1.44873Z" fill="currentColor"/>
</g>
</svg>
