<svg viewBox="0 0 24 24" fill="none" xmlns="http://www.w3.org/2000/svg">
<g id="mdi:progress-check">
<path id="Vector" d="M12.9998 2.03003V4.05003C17.3898 4.59003 20.4998 8.58003 19.9598 12.97C19.4998 16.61 16.6398 19.5 12.9998 19.93V21.93C18.4998 21.38 22.4998 16.5 21.9498 11C21.4998 6.25003 17.7298 2.50003 12.9998 2.03003ZM10.9998 2.06003C9.0498 2.25003 7.18981 3.00003 5.6698 4.26003L7.0998 5.74003C8.2198 4.84003 9.5698 4.26003 10.9998 4.06003V2.06003ZM4.2598 5.67003C3.00946 7.18737 2.24001 9.04311 2.0498 11H4.0498C4.2398 9.58003 4.7998 8.23003 5.6898 7.10003L4.2598 5.67003ZM15.4998 8.50003L10.6198 13.38L8.4998 11.26L7.43981 12.32L10.6198 15.5L16.5598 9.56003L15.4998 8.50003ZM2.0598 13C2.2598 14.96 3.0298 16.81 4.2698 18.33L5.6898 16.9C4.80673 15.7696 4.24376 14.4226 4.0598 13H2.0598ZM7.0998 18.37L5.6698 19.74C7.18458 21.0027 9.03907 21.7891 10.9998 22V20C9.57721 19.8161 8.23021 19.2531 7.0998 18.37Z" fill="#27AE60"/>
</g>
</svg>
